<svg width="90" height="90" viewBox="0 0 90 90" fill="none" xmlns="http://www.w3.org/2000/svg">
<path d="M68.0528 23.8635H60.663L62.1864 16.0579C62.4575 14.6689 63.3639 13.5358 64.611 13.0269C65.8122 12.5368 67.1315 12.6551 68.2305 13.3514L69.5186 14.1674C71.0388 15.1301 72.8427 15.4437 74.5989 15.0495C76.3549 14.6556 77.8521 13.6013 78.8151 12.0811L80.8111 8.92983L73.8319 4.50873C71.8478 3.25104 69.5867 2.49675 67.2449 2.31139C64.9031 2.12602 62.5514 2.51518 60.3942 3.44507C58.2365 4.37364 56.3381 5.81497 54.8639 7.64387C53.3897 9.47276 52.3843 11.6339 51.9351 13.9396L49.9983 23.863H38.932L36.9954 13.9398C36.5462 11.6341 35.5408 9.47289 34.0666 7.64396C32.5924 5.81503 30.694 4.37366 28.5363 3.44507C26.379 2.51519 24.0274 2.12601 21.6856 2.31134C19.3438 2.49667 17.0827 3.2509 15.0986 4.50853L8.11934 8.93004L10.1154 12.0813C12.1033 15.2193 16.2738 16.1553 19.4119 14.1674L20.7 13.3514C21.7984 12.6555 23.1172 12.5368 24.3187 13.0267C25.5661 13.5352 26.473 14.6681 26.7441 16.0575L28.2675 23.8635H0L2.49243 28.1713C6.39478 34.9163 13.6424 39.1197 21.4295 39.1626V62.4538L34.5586 87.7332H54.9237L68.0528 62.4538V39.1628H68.4499C76.2826 39.1628 83.5851 34.9511 87.5078 28.1713L90 23.8635H68.0528ZM53.9898 14.3411C54.3739 12.3697 55.2334 10.5219 56.4939 8.95822C57.7543 7.39451 59.3775 6.16218 61.2223 5.36829C63.0668 4.57323 65.0774 4.24048 67.0796 4.39892C69.0818 4.55736 71.0151 5.20221 72.7115 6.27747L77.9224 9.57838L77.0465 10.9609C76.7215 11.4772 76.2973 11.9238 75.7985 12.2751C75.2996 12.6263 74.7361 12.8751 74.1404 13.007C73.5455 13.1421 72.9298 13.158 72.3287 13.0536C71.7276 12.9492 71.1533 12.7267 70.6388 12.3988L69.3507 11.5828C67.6722 10.5194 65.6562 10.3393 63.8201 11.0886C61.9174 11.865 60.5384 13.5728 60.1317 15.6568L58.53 23.8635H52.131L53.9898 14.3411ZM28.7988 15.6564C28.392 13.5718 27.0125 11.8638 25.1089 11.0879C23.2732 10.3393 21.2577 10.5198 19.5798 11.5828L18.2917 12.3986C16.1286 13.7688 13.2541 13.1238 11.8839 10.9607L11.0081 9.57817L16.219 6.27726C17.9154 5.20193 19.8487 4.55702 21.851 4.39855C23.8532 4.24007 25.8639 4.57281 27.7083 5.36788C29.5532 6.16183 31.1763 7.39417 32.4368 8.95786C33.6973 10.5216 34.5569 12.3693 34.9411 14.3407L36.7994 23.863H30.4005L28.7988 15.6564ZM65.9593 25.9569V37.2781L65.0585 37.9558C57.7142 43.4801 53.3295 52.2649 53.3295 61.4548V68.7197H44.8034H36.2773V61.5486C36.2773 52.3585 31.8927 43.5737 24.5483 38.0493L23.5232 37.2783V25.9571L65.9593 25.9569ZM53.3295 85.6397H36.2773V78.1727L44.7383 82.3577L53.3295 78.1631V85.6397ZM53.3295 75.8335L44.7444 80.0252L36.2773 75.8373V70.8133H53.3295V75.8335ZM4.3045 27.1229L3.62979 25.9569H21.4295V37.0675C14.3873 37.0244 7.8338 33.2234 4.3045 27.1229ZM23.523 39.9031C30.2029 45.0437 34.1837 53.1111 34.1837 61.5484V82.4692L23.523 61.9422V39.9031ZM55.4229 82.2302V61.4548C55.4229 53.0701 59.3546 45.0506 65.9596 39.906V61.9424L55.4229 82.2302ZM85.6955 27.1229C82.1459 33.2581 75.5378 37.0694 68.4499 37.0694H68.0528V25.9569H86.3702L85.6955 27.1229Z" fill="#4C566A"/>
<path d="M28.7988 15.6564C28.392 13.5718 27.0125 11.8638 25.1089 11.0879C23.2732 10.3393 21.2577 10.5198 19.5798 11.5828L18.2917 12.3986C16.1286 13.7688 13.2541 13.1238 11.8839 10.9607L11.0081 9.57817L16.219 6.27726C17.9154 5.20193 19.8487 4.55702 21.851 4.39855C23.8532 4.24007 25.8639 4.57281 27.7083 5.36788C29.5532 6.16183 31.1763 7.39417 32.4368 8.95786C33.6973 10.5216 34.5569 12.3693 34.9411 14.3407L36.7994 23.863H30.4005L28.7988 15.6564Z" fill="#EBCB8B"/>
<path d="M53.9898 14.3411C54.3739 12.3697 55.2334 10.5219 56.4939 8.95822C57.7543 7.39451 59.3775 6.16218 61.2223 5.36829C63.0668 4.57323 65.0774 4.24048 67.0796 4.39892C69.0818 4.55736 71.0151 5.20221 72.7115 6.27747L77.9224 9.57838L77.0465 10.9609C76.7215 11.4772 76.2973 11.9238 75.7985 12.2751C75.2996 12.6263 74.7361 12.8751 74.1404 13.007C73.5455 13.1421 72.9298 13.158 72.3287 13.0536C71.7276 12.9492 71.1533 12.7267 70.6388 12.3988L69.3507 11.5828C67.6722 10.5194 65.6562 10.3393 63.8201 11.0886C61.9174 11.865 60.5384 13.5728 60.1317 15.6568L58.53 23.8635H52.131L53.9898 14.3411Z" fill="#EBCB8B"/>
<path d="M4.3045 27.1229L3.62979 25.9569H21.4295V37.0675C14.3873 37.0244 7.8338 33.2234 4.3045 27.1229Z" fill="#4C566A"/>
<path d="M85.6955 27.1229C82.1459 33.2581 75.5378 37.0694 68.4499 37.0694H68.0528V25.9569H86.3702L85.6955 27.1229Z" fill="#4C566A"/>
<path d="M53.3295 85.6397H36.2773V78.1727L44.7383 82.3577L53.3295 78.1631V85.6397Z" fill="#EBCB8B"/>
<path d="M65.9593 25.9569V37.2781L65.0585 37.9558C57.7142 43.4801 53.3295 52.2649 53.3295 61.4548V68.7197H44.8034H36.2773V61.5486C36.2773 52.3585 31.8927 43.5737 24.5483 38.0493L23.5232 37.2783V25.9571L65.9593 25.9569Z" fill="#EBCB8B"/>
<path d="M23.523 39.9031C30.2029 45.0437 34.1837 53.1111 34.1837 61.5484V82.4692L23.523 61.9422V39.9031Z" fill="#4C566A"/>
<path d="M55.4229 82.2302V61.4548C55.4229 53.0701 59.3546 45.0506 65.9596 39.906V61.9424L55.4229 82.2302Z" fill="#4C566A"/>
<path d="M53.3295 75.8335L44.7444 80.0252L36.2773 75.8373V70.8133H53.3295V75.8335Z" fill="#EBCB8B"/>
<path d="M27.9444 54.6393C29.1439 54.6393 30.1163 53.6669 30.1163 52.4673C30.1163 51.2678 29.1439 50.2954 27.9444 50.2954C26.7449 50.2954 25.7725 51.2678 25.7725 52.4673C25.7725 53.6669 26.7449 54.6393 27.9444 54.6393Z" fill="#ECEFF4"/>
<path d="M60.9859 54.6393C62.1854 54.6393 63.1578 53.6669 63.1578 52.4673C63.1578 51.2678 62.1854 50.2954 60.9859 50.2954C59.7864 50.2954 58.814 51.2678 58.814 52.4673C58.814 53.6669 59.7864 54.6393 60.9859 54.6393Z" fill="#ECEFF4"/>
</svg>
