<svg width="90" height="90" viewBox="0 0 90 90" fill="none" xmlns="http://www.w3.org/2000/svg">
<path d="M86.299 55.6278C86.9348 57.5856 87.2622 60.1747 86.2447 62.972C86.061 63.477 85.6213 63.8451 85.0919 63.9371C84.5625 64.0291 84.0243 63.8309 83.681 63.4175L83.6799 63.4161L83.6738 63.4088L83.6471 63.3769C83.623 63.3484 83.5869 63.3056 83.5403 63.251C83.5322 63.2415 83.5238 63.2317 83.5151 63.2215C83.7011 64.3739 83.7731 65.6512 83.5697 66.9022C83.4911 67.3861 83.1808 67.8011 82.7389 68.0135C82.297 68.2258 81.7791 68.2088 81.3521 67.9679L81.3479 67.9656L81.3265 67.9536C81.3067 67.9426 81.276 67.9257 81.2356 67.9038C81.1549 67.86 81.036 67.7964 80.8886 67.7203C80.592 67.5673 80.1881 67.3679 79.7518 67.1775C79.555 67.0917 79.3579 67.0104 79.1659 66.9374C79.1545 67.2051 79.1357 67.489 79.1067 67.7798C79.0345 68.5014 78.8925 69.3357 78.6019 70.0942C78.3205 70.8286 77.817 71.706 76.8838 72.1933L76.8834 72.1935C75.893 72.7103 74.9167 72.557 74.1623 72.1529C73.885 72.0044 73.6329 71.821 73.4063 71.6243C73.301 72.1315 73.1598 72.6583 72.9631 73.1379C72.6951 73.7911 72.1632 74.756 71.0891 75.1136C70.2929 75.3791 69.5406 75.3066 68.8951 74.9953C68.5577 74.8326 68.2792 74.6184 68.0561 74.4105C67.936 74.6499 67.78 74.9282 67.5857 75.1749C67.3046 75.532 66.7368 76.0804 65.8449 76.0804C65.4618 76.0804 65.1042 75.9654 64.8883 75.8877C64.6333 75.796 64.3648 75.6758 64.1063 75.5497C63.587 75.2962 63.0091 74.9694 62.485 74.658C62.2661 74.5279 62.0526 74.3981 61.8518 74.2742C60.7808 76.3057 59.0242 78.2005 56.3263 79.7159L56.3263 79.7159C55.4393 80.214 54.4551 80.6699 53.3622 81.0768C53.2575 81.1158 53.1487 81.1429 53.0379 81.1578L52.8388 79.671C53.0379 81.1578 53.0374 81.1578 53.0369 81.1579L53.0357 81.1581L53.0327 81.1585L53.0245 81.1595L52.9997 81.1626C52.9898 81.1638 52.9783 81.1652 52.965 81.1668C52.951 81.1685 52.935 81.1703 52.9173 81.1723C52.8483 81.18 52.7516 81.1899 52.6312 81.2003C52.3906 81.221 52.0527 81.2436 51.6491 81.2526C50.8513 81.2704 49.7535 81.2366 48.6286 81.0109C47.5202 80.7885 46.2561 80.3544 45.2463 79.4775C45.1637 79.4057 45.0835 79.3316 45.0057 79.255C44.9267 79.3331 44.8451 79.4088 44.7611 79.482C43.7515 80.3612 42.4865 80.7962 41.3772 81.0192C40.2515 81.2454 39.1526 81.2793 38.3539 81.2615C37.9499 81.2525 37.6115 81.2299 37.3707 81.2092C37.2501 81.1988 37.1533 81.1888 37.0842 81.1811C37.0497 81.1772 37.022 81.1739 37.0018 81.1714L36.9769 81.1683L36.9687 81.1672L36.9657 81.1668L36.9645 81.1667C36.964 81.1666 36.9635 81.1665 37.1627 79.6798L36.9635 81.1665C36.8527 81.1517 36.744 81.1245 36.6393 81.0856C35.547 80.6789 34.5612 80.2232 33.6736 79.7248L33.6725 79.7241C30.9774 78.2079 29.2255 76.3105 28.1583 74.2773C27.9546 74.403 27.7378 74.5348 27.5153 74.6669C26.991 74.9783 26.413 75.3051 25.8935 75.5585C25.6349 75.6847 25.3664 75.8048 25.1113 75.8966C24.8955 75.9742 24.5379 76.0892 24.1548 76.0892C23.2635 76.0892 22.6957 75.5415 22.4142 75.1842C22.2199 74.9376 22.0639 74.6593 21.9438 74.4199C21.7211 74.6276 21.4432 74.8415 21.1066 75.0042C20.4616 75.316 19.7092 75.3895 18.9123 75.1241L18.9115 75.1239C17.838 74.7657 17.3059 73.8016 17.0375 73.1477C16.8406 72.668 16.6992 72.1411 16.5937 71.6338C16.3673 71.8304 16.1152 72.0135 15.8381 72.1618C15.0834 72.5659 14.1073 72.7189 13.1169 72.2026L13.1164 72.2023C12.1832 71.7154 11.6798 70.8379 11.3987 70.104C11.1082 69.3458 10.9661 68.5119 10.8938 67.7905C10.8647 67.4994 10.8458 67.2153 10.8343 66.9473C10.6424 67.0204 10.4453 67.1015 10.2485 67.1873C9.8124 67.3774 9.40878 67.5767 9.11238 67.7295C8.96503 67.8055 8.84621 67.8691 8.7655 67.9128C8.72519 67.9347 8.69452 67.9516 8.6747 67.9626L8.65328 67.9745L8.64912 67.9768L8.64899 67.9769L8.64886 67.977C8.64899 67.9769 8.64912 67.9768 7.9123 66.6702C7.17547 65.3637 7.17564 65.3636 7.17581 65.3635L7.17622 65.3633L7.17725 65.3627L7.18019 65.361L7.18947 65.3558L7.22129 65.3381C7.24824 65.3232 7.28652 65.3022 7.33488 65.2759C7.43151 65.2235 7.56891 65.1501 7.7371 65.0633C7.76179 65.0506 7.78718 65.0376 7.81324 65.0242L86.299 55.6278ZM86.299 55.6278C86.4652 55.6468 86.6361 55.6381 86.8049 55.5993C87.3747 55.4685 87.8165 55.0185 87.937 54.4464C88.4814 51.8598 88.0766 49.4223 87.375 47.4007C87.7044 47.1434 87.9178 46.7547 87.948 46.3235C88.1051 44.0858 87.3755 41.9484 86.5263 40.2611M86.299 55.6278L86.5263 40.2611M12.2745 3.88805C11.1095 2.94315 11.109 2.94373 11.1086 2.94433L11.1075 2.94569L11.1049 2.9489L11.0981 2.95738L11.0783 2.9824C11.0624 3.00264 11.0412 3.02996 11.0152 3.06409C10.9635 3.13232 10.8927 3.22799 10.8077 3.34891C10.6379 3.59032 10.4099 3.93478 10.1626 4.36456C9.67176 5.21766 9.08532 6.44105 8.74421 7.88651C8.40192 9.33701 8.2984 11.0493 8.82463 12.8343C9.2957 14.4321 10.2469 16.0037 11.8344 17.4464C11.83 17.5049 11.8257 17.566 11.8216 17.6295C11.7821 18.2371 11.7571 19.0797 11.8181 20.0146C11.8934 21.1698 12.1089 22.6328 12.7072 23.9715C12.2293 24.1584 11.6998 24.4061 11.1416 24.7341C9.06108 25.9568 6.67472 28.2431 5.05793 32.4371C4.91154 32.8169 4.92816 33.2312 5.08827 33.5893C4.12574 34.9629 3.22656 36.85 3.10045 39.1987C3.079 39.5983 3.2178 39.9815 3.47313 40.2712C2.62412 41.9581 1.89485 44.0948 2.05186 46.3322C2.08211 46.7634 2.29543 47.1521 2.62472 47.4094C1.92316 49.431 1.51828 51.8685 2.06277 54.4552C2.18318 55.0272 2.62491 55.4771 3.19461 55.6081C3.36381 55.647 3.53514 55.6556 3.70179 55.6364C3.06529 57.5948 2.73718 60.1847 3.75504 62.9826C3.93876 63.4876 4.37859 63.8557 4.90805 63.9477C5.43744 64.0396 5.97555 63.8413 6.31876 63.4279L6.31883 63.4279L6.3189 63.4278L6.32003 63.4264L6.32618 63.419L6.35287 63.3872C6.37688 63.3586 6.41299 63.3159 6.45962 63.2612C6.46795 63.2515 6.47661 63.2413 6.48559 63.2308L12.2745 3.88805ZM12.2745 3.88805L11.1095 2.94315C11.2564 2.76209 11.4434 2.61775 11.6558 2.52159C16.2767 0.429335 20.6571 2.57975 23.5827 4.82901C25.0803 5.98039 26.3092 7.23785 27.1598 8.19971C27.3629 8.4294 27.5455 8.64343 27.7061 8.83661C31.9652 6.63266 36.0863 5.45292 39.2196 4.82043C40.9274 4.4757 42.3495 4.292 43.3515 4.19429C43.8527 4.1454 44.2495 4.11797 44.5252 4.10268C44.6313 4.09679 44.7195 4.09269 44.7889 4.08987C44.8678 4.07862 44.9479 4.0736 45.0286 4.0751L45.0007 5.57484C45.0286 4.0751 45.029 4.07511 45.0295 4.07512L45.0306 4.07514L45.0334 4.0752L45.0415 4.07537L45.0671 4.07602C45.0883 4.0766 45.1179 4.07751 45.1556 4.07888C45.2309 4.08162 45.3385 4.08624 45.4763 4.09389C45.752 4.10918 46.1488 4.13661 46.65 4.1855C47.652 4.28321 49.0741 4.46691 50.7819 4.81164C53.9153 5.44412 58.0362 6.62384 62.2953 8.82775C62.4558 8.63461 62.6383 8.42063 62.8413 8.19101C63.6917 7.2291 64.9203 5.97157 66.4177 4.82005C69.3429 2.57055 73.7228 0.41962 78.3437 2.51094C78.5562 2.6071 78.7433 2.75147 78.8902 2.9326L77.7252 3.8775C78.8902 2.9326 78.8907 2.93318 78.8912 2.93378L78.8923 2.93514L78.8949 2.93836L78.9016 2.94683L78.9215 2.97185C78.9374 2.99209 78.9586 3.01941 78.9845 3.05354C79.0363 3.12177 79.1071 3.21744 79.1921 3.33836C79.3618 3.57978 79.5898 3.92423 79.8371 4.35402C80.328 5.20711 80.9144 6.43051 81.2555 7.87597C81.5978 9.32647 81.7013 11.0388 81.1751 12.8237C80.704 14.4216 79.7528 15.9932 78.1653 17.4359C78.1697 17.4945 78.174 17.5557 78.1781 17.6192C78.2177 18.227 78.2426 19.0699 78.1817 20.0049C78.1064 21.1602 77.8909 22.6233 77.2929 23.9621C77.7709 24.1488 78.3005 24.3963 78.8588 24.7242C80.94 25.9465 83.327 28.2324 84.9437 32.4266C85.0904 32.807 85.0734 33.2221 84.9125 33.5807C85.8747 34.9544 86.7734 36.841 86.8994 39.1881C86.9209 39.588 86.782 39.9713 86.5263 40.2611M12.2745 3.88805L86.5263 40.2611M22.8282 73.4134C22.8374 73.4044 22.8367 73.4062 22.8265 73.4152C22.8271 73.4146 22.8277 73.414 22.8282 73.4134ZM21.4195 73.3509C21.4104 73.3406 21.406 73.3343 21.4061 73.3338C21.4062 73.3332 21.4107 73.3384 21.4195 73.3509ZM67.1733 73.4057C67.163 73.3967 67.1624 73.3948 67.1716 73.404C67.1722 73.4046 67.1727 73.4051 67.1733 73.4057ZM68.5934 73.3261C68.5935 73.3265 68.5891 73.3329 68.5799 73.3434C68.5886 73.3309 68.5932 73.3257 68.5934 73.3261Z" fill="#BF616A" stroke="#D8DEE9" stroke-width="3" stroke-miterlimit="10" stroke-linecap="round" stroke-linejoin="round"/>
<path d="M29.0041 72.5208C26.9338 67.2087 29.7306 61.5816 29.7289 61.5798" stroke="#D8DEE9" stroke-width="3" stroke-miterlimit="10" stroke-linecap="round" stroke-linejoin="round"/>
<path d="M35.8696 60.1262L37.1623 66.7521" stroke="#D8DEE9" stroke-width="3" stroke-miterlimit="10" stroke-linecap="round" stroke-linejoin="round"/>
<path d="M27.3245 38.6328C27.3245 38.6328 35.829 36.229 36.334 44.2688C36.2849 44.3011 29.9404 48.4727 27.3245 38.6328Z" fill="#4C566A"/>
<path d="M27.3245 38.6328C27.3245 38.6328 35.829 36.229 36.334 44.2688M27.3245 38.6328C29.9505 48.511 36.334 44.2688 36.334 44.2688M27.3245 38.6328C29.9404 48.4727 36.2849 44.3011 36.334 44.2688M36.334 44.2688V46.9959M31.2241 24.1484C36.0102 16.3912 45.0006 15.7861 45.0006 15.7861M34.617 16.8767C34.617 16.8767 28.5568 19.4826 26.9811 25.8457C26.9811 25.8457 26.4356 30.1485 23.1631 31.0575" stroke="#D8DEE9" stroke-width="3" stroke-miterlimit="10" stroke-linecap="round" stroke-linejoin="round"/>
<path d="M26.9812 25.8457C26.9812 25.8457 26.3751 32.1483 25.2844 35.2391C24.1935 38.3299 20.9816 40.9963 23.1632 47.7837C25.3448 54.5712 31.2233 51.8441 31.2233 51.8441" stroke="#D8DEE9" stroke-width="3" stroke-miterlimit="10" stroke-linecap="round" stroke-linejoin="round"/>
<path d="M20.9211 31.5422C20.9211 31.5422 17.6486 41.2992 19.5878 49.9047C19.5878 49.9047 20.6181 53.1166 24.6785 54.2075M19.5878 49.9047C19.5878 49.9047 18.4969 60.0858 27.7691 64.2068M45.0009 75.4796C45.0009 75.4761 45.0009 75.4726 45.0009 75.4691M60.2726 61.5711C60.2726 61.5711 63.0782 67.1807 61.0202 72.4875" stroke="#D8DEE9" stroke-width="3" stroke-miterlimit="10" stroke-linecap="round" stroke-linejoin="round"/>
<path d="M54.1308 60.1165L52.8379 66.7424" stroke="#D8DEE9" stroke-width="3" stroke-miterlimit="10" stroke-linecap="round" stroke-linejoin="round"/>
<path d="M62.6756 38.6231C62.6756 38.6231 54.1712 36.2193 53.6662 44.2592C53.7153 44.2915 60.0596 48.463 62.6756 38.6231Z" fill="#4C566A"/>
<path d="M62.6756 38.6231C62.6756 38.6231 54.1712 36.2193 53.6662 44.2592M62.6756 38.6231C60.0495 48.5013 53.6662 44.2592 53.6662 44.2592M62.6756 38.6231C60.0596 48.463 53.7153 44.2915 53.6662 44.2592M53.6662 44.2592V46.9862M45.0005 15.7754C45.0005 15.7754 53.9891 16.3822 58.777 24.1394M55.3832 16.8668C55.3832 16.8668 61.4434 19.4728 63.0191 25.8359C63.0191 25.8359 63.5646 30.1387 66.8371 31.0476" stroke="#D8DEE9" stroke-width="3" stroke-miterlimit="10" stroke-linecap="round" stroke-linejoin="round"/>
<path d="M63.019 25.8359C63.019 25.8359 63.6251 32.1386 64.7158 35.2293C65.8067 38.3201 69.0186 40.9865 66.837 47.774C64.6553 54.5614 58.7769 51.8343 58.7769 51.8343" stroke="#D8DEE9" stroke-width="3" stroke-miterlimit="10" stroke-linecap="round" stroke-linejoin="round"/>
<path d="M69.0793 31.5325C69.0793 31.5325 72.3519 41.2894 70.4127 49.8949C70.4127 49.8949 69.3824 53.1068 65.322 54.1977M70.4127 49.8949C70.4127 49.8949 71.5036 60.076 62.2314 64.197" stroke="#D8DEE9" stroke-width="3" stroke-miterlimit="10" stroke-linecap="round" stroke-linejoin="round"/>
<path d="M45.0008 86.8621V86.8727C32.5558 87.6801 34.408 78.4171 34.408 78.4171C35.2224 78.8745 36.1372 79.2983 37.1627 79.6801C37.1627 79.6801 45.0008 80.7302 45.0008 75.4796C45.0113 80.7196 52.8388 79.6713 52.8388 79.6713C53.8644 79.2895 54.7772 78.8657 55.5918 78.4083C55.5918 78.4083 57.444 87.6695 45.0008 86.8621Z" fill="#BF616A" stroke="#D8DEE9" stroke-width="3" stroke-miterlimit="10" stroke-linecap="round" stroke-linejoin="round"/>
<path d="M52.4484 68.7619C52.4484 68.7619 48.0843 71.9948 47.8433 73.0451C47.6532 73.863 45.9084 74.345 45.1468 74.5157C45.08 74.5315 45.02 74.5456 44.9691 74.5544C44.9198 74.5438 44.8618 74.5315 44.7949 74.5157C44.0473 74.345 42.3464 73.872 42.1581 73.0539C41.9154 72.0038 37.5513 68.7726 37.5513 68.7726C38.6031 66.5105 42.6419 69.4181 42.6419 69.4181C43.5901 69.1665 44.5855 69.3091 44.9761 69.3829C45.3261 69.3126 46.3692 69.1454 47.3578 69.4093C47.3578 69.4091 51.3983 66.4997 52.4484 68.7619Z" stroke="#D8DEE9" stroke-width="3" stroke-miterlimit="10" stroke-linecap="round" stroke-linejoin="round"/>
<path d="M25.1795 13.2251C25.1795 13.2251 19.7944 6.24451 14.3097 5.44682C14.3097 5.44682 13.4121 5.14764 13.113 6.34436C12.8138 7.54107 10.3207 11.1311 14.6089 14.9205M44.9691 74.5543C44.8601 74.5789 44.7949 74.5895 44.7949 74.5895V74.5157C44.8617 74.5315 44.9199 74.5438 44.9691 74.5543Z" stroke="#D8DEE9" stroke-width="3" stroke-miterlimit="10" stroke-linecap="round" stroke-linejoin="round"/>
<path d="M34.6438 69.4807C34.6771 69.4807 34.7041 69.4537 34.7041 69.4204C34.7041 69.3871 34.6771 69.3601 34.6438 69.3601C34.6105 69.3601 34.5835 69.3871 34.5835 69.4204C34.5835 69.4537 34.6105 69.4807 34.6438 69.4807Z" stroke="#D8DEE9" stroke-width="3" stroke-miterlimit="10" stroke-linecap="round" stroke-linejoin="round"/>
<path d="M35.3479 74.0542C35.3812 74.0542 35.4082 74.0272 35.4082 73.9939C35.4082 73.9606 35.3812 73.9336 35.3479 73.9336C35.3146 73.9336 35.2876 73.9606 35.2876 73.9939C35.2876 74.0272 35.3146 74.0542 35.3479 74.0542Z" stroke="#D8DEE9" stroke-width="3" stroke-miterlimit="10" stroke-linecap="round" stroke-linejoin="round"/>
<path d="M31.302 66.8423C31.3353 66.8423 31.3623 66.8153 31.3623 66.782C31.3623 66.7487 31.3353 66.7217 31.302 66.7217C31.2687 66.7217 31.2417 66.7487 31.2417 66.782C31.2417 66.8153 31.2687 66.8423 31.302 66.8423Z" stroke="#D8DEE9" stroke-width="3" stroke-miterlimit="10" stroke-linecap="round" stroke-linejoin="round"/>
<path d="M32.885 71.7676C32.9183 71.7676 32.9453 71.7406 32.9453 71.7073C32.9453 71.674 32.9183 71.647 32.885 71.647C32.8517 71.647 32.8247 71.674 32.8247 71.7073C32.8247 71.7406 32.8517 71.7676 32.885 71.7676Z" stroke="#D8DEE9" stroke-width="3" stroke-miterlimit="10" stroke-linecap="round" stroke-linejoin="round"/>
<path d="M57.7703 70.2815C57.8036 70.2815 57.8305 70.2545 57.8305 70.2212C57.8305 70.1879 57.8036 70.1609 57.7703 70.1609C57.737 70.1609 57.71 70.1879 57.71 70.2212C57.71 70.2545 57.737 70.2815 57.7703 70.2815Z" stroke="#D8DEE9" stroke-width="3" stroke-miterlimit="10" stroke-linecap="round" stroke-linejoin="round"/>
<path d="M55.0344 74.0129C55.0677 74.0129 55.0947 73.9859 55.0947 73.9526C55.0947 73.9193 55.0677 73.8923 55.0344 73.8923C55.0011 73.8923 54.9741 73.9193 54.9741 73.9526C54.9741 73.9859 55.0011 74.0129 55.0344 74.0129Z" stroke="#D8DEE9" stroke-width="3" stroke-miterlimit="10" stroke-linecap="round" stroke-linejoin="round"/>
<path d="M57.2727 66.0527C57.306 66.0527 57.333 66.0257 57.333 65.9924C57.333 65.9591 57.306 65.9321 57.2727 65.9321C57.2394 65.9321 57.2124 65.9591 57.2124 65.9924C57.2124 66.0257 57.2394 66.0527 57.2727 66.0527Z" stroke="#D8DEE9" stroke-width="3" stroke-miterlimit="10" stroke-linecap="round" stroke-linejoin="round"/>
<path d="M54.9099 70.6548C54.9432 70.6548 54.9702 70.6278 54.9702 70.5945C54.9702 70.5612 54.9432 70.5342 54.9099 70.5342C54.8766 70.5342 54.8496 70.5612 54.8496 70.5945C54.8496 70.6278 54.8766 70.6548 54.9099 70.6548Z" stroke="#D8DEE9" stroke-width="3" stroke-miterlimit="10" stroke-linecap="round" stroke-linejoin="round"/>
</svg>
