<svg width="100" height="100" viewBox="0 0 100 100" fill="none" xmlns="http://www.w3.org/2000/svg">
<mask id="path-1-outside-1_108_667" maskUnits="userSpaceOnUse" x="-0.321289" y="-0.484375" width="100" height="93" fill="black">
<rect fill="white" x="-0.321289" y="-0.484375" width="100" height="93"/>
<path d="M96.0771 60.1527C96.0771 60.1527 93.3644 56.6503 92.2875 58.4464C92.2875 58.4464 96.4172 63.4732 94.2615 69.3992C94.2615 69.3992 90.3115 64.6421 89.6842 65.7189C89.6842 65.7189 91.8381 70.2083 91.2105 74.0683C91.2105 74.0683 87.7082 72.0923 86.2716 72.362C86.2716 72.362 86.7213 77.6585 84.6552 78.7374C82.5914 79.8144 80.8851 75.5947 80.5256 75.5947C80.166 75.5947 80.3457 81.2509 78.4617 81.8783C76.5756 82.5076 76.0363 79.8144 75.2291 80.174C74.4199 80.5316 74.1463 82.8671 73.1613 82.8671C72.1763 82.8671 68.1365 80.174 68.1365 80.174L67.8004 80.5413C66.872 82.9374 65.0504 85.2769 61.7689 87.12C60.864 87.6282 59.8496 88.0992 58.7101 88.5234C58.7101 88.5234 50.0129 89.6882 50.0011 83.866C50.0011 89.6999 41.2922 88.5331 41.2922 88.5331C40.1527 88.1089 39.1365 87.638 38.2314 87.1298C34.9695 85.2947 33.1556 82.965 32.2273 80.5785L31.8658 80.1837C31.8658 80.1837 27.824 82.8769 26.839 82.8769C25.8541 82.8769 25.5804 80.5433 24.7732 80.1837C23.964 79.8241 23.4246 82.5173 21.5406 81.89C19.6545 81.2607 19.8343 75.6044 19.4748 75.6044C19.1172 75.6044 17.4109 79.8242 15.3451 78.7472C13.2812 77.6702 13.7287 72.3738 13.7287 72.3738C12.2922 72.104 8.79177 74.0781 8.79177 74.0781C8.16247 70.2181 10.3181 65.7286 10.3181 65.7286C9.68884 64.6517 5.73884 69.4109 5.73884 69.4109C3.58298 63.4849 7.71481 58.4562 7.71481 58.4562C6.63591 56.662 3.92321 60.1624 3.92321 60.1624C2.52771 53.5329 7.54294 47.6462 7.9572 47.1732L3.94274 51.3636C3.58903 46.323 8.11345 41.3704 8.24841 41.224L5.10954 43.6435C5.37536 38.6929 9.29411 35.8335 9.41716 35.7456L7.17536 36.6408C10.498 28.0216 16.7814 27.662 16.7814 27.662C13.9982 24.8788 14.8953 18.6853 14.8953 18.6853C7.08532 12.3997 13.6386 4.32005 13.6386 4.32005C22.1679 0.458137 30.3394 11.9501 30.3394 11.9501C40.3052 6.38392 50.0011 6.20404 50.0011 6.20404V6.19427C50.0011 6.19427 59.6972 6.37415 69.6629 11.9404C69.6629 11.9404 77.8324 0.448176 86.3617 4.30833C86.3617 4.30833 92.915 12.388 85.1051 18.6736C85.1051 18.6736 86.0021 24.8693 83.2191 27.6523C83.2191 27.6523 89.5047 28.0099 92.8271 36.629L90.5834 35.7339C90.7064 35.8218 94.6252 38.6831 94.891 43.6318L91.7521 41.2122C91.8869 41.3589 96.4115 46.3134 96.0578 51.3538L92.0433 47.1634C92.4574 47.6365 97.4726 53.5232 96.0771 60.1527Z"/>
</mask>
<path d="M96.0771 60.1527C96.0771 60.1527 93.3644 56.6503 92.2875 58.4464C92.2875 58.4464 96.4172 63.4732 94.2615 69.3992C94.2615 69.3992 90.3115 64.6421 89.6842 65.7189C89.6842 65.7189 91.8381 70.2083 91.2105 74.0683C91.2105 74.0683 87.7082 72.0923 86.2716 72.362C86.2716 72.362 86.7213 77.6585 84.6552 78.7374C82.5914 79.8144 80.8851 75.5947 80.5256 75.5947C80.166 75.5947 80.3457 81.2509 78.4617 81.8783C76.5756 82.5076 76.0363 79.8144 75.2291 80.174C74.4199 80.5316 74.1463 82.8671 73.1613 82.8671C72.1763 82.8671 68.1365 80.174 68.1365 80.174L67.8004 80.5413C66.872 82.9374 65.0504 85.2769 61.7689 87.12C60.864 87.6282 59.8496 88.0992 58.7101 88.5234C58.7101 88.5234 50.0129 89.6882 50.0011 83.866C50.0011 89.6999 41.2922 88.5331 41.2922 88.5331C40.1527 88.1089 39.1365 87.638 38.2314 87.1298C34.9695 85.2947 33.1556 82.965 32.2273 80.5785L31.8658 80.1837C31.8658 80.1837 27.824 82.8769 26.839 82.8769C25.8541 82.8769 25.5804 80.5433 24.7732 80.1837C23.964 79.8241 23.4246 82.5173 21.5406 81.89C19.6545 81.2607 19.8343 75.6044 19.4748 75.6044C19.1172 75.6044 17.4109 79.8242 15.3451 78.7472C13.2812 77.6702 13.7287 72.3738 13.7287 72.3738C12.2922 72.104 8.79177 74.0781 8.79177 74.0781C8.16247 70.2181 10.3181 65.7286 10.3181 65.7286C9.68884 64.6517 5.73884 69.4109 5.73884 69.4109C3.58298 63.4849 7.71481 58.4562 7.71481 58.4562C6.63591 56.662 3.92321 60.1624 3.92321 60.1624C2.52771 53.5329 7.54294 47.6462 7.9572 47.1732L3.94274 51.3636C3.58903 46.323 8.11345 41.3704 8.24841 41.224L5.10954 43.6435C5.37536 38.6929 9.29411 35.8335 9.41716 35.7456L7.17536 36.6408C10.498 28.0216 16.7814 27.662 16.7814 27.662C13.9982 24.8788 14.8953 18.6853 14.8953 18.6853C7.08532 12.3997 13.6386 4.32005 13.6386 4.32005C22.1679 0.458137 30.3394 11.9501 30.3394 11.9501C40.3052 6.38392 50.0011 6.20404 50.0011 6.20404V6.19427C50.0011 6.19427 59.6972 6.37415 69.6629 11.9404C69.6629 11.9404 77.8324 0.448176 86.3617 4.30833C86.3617 4.30833 92.915 12.388 85.1051 18.6736C85.1051 18.6736 86.0021 24.8693 83.2191 27.6523C83.2191 27.6523 89.5047 28.0099 92.8271 36.629L90.5834 35.7339C90.7064 35.8218 94.6252 38.6831 94.891 43.6318L91.7521 41.2122C91.8869 41.3589 96.4115 46.3134 96.0578 51.3538L92.0433 47.1634C92.4574 47.6365 97.4726 53.5232 96.0771 60.1527Z" fill="#BF616A"/>
<path d="M96.0771 60.1527L93.7053 61.9897C94.4213 62.9141 95.6091 63.3383 96.7487 63.0765C97.8883 62.8148 98.7719 61.9148 99.0128 60.7706L96.0771 60.1527ZM92.2875 58.4464L89.7145 56.9037C89.0625 57.9911 89.1645 59.3711 89.9694 60.3508L92.2875 58.4464ZM94.2615 69.3992L91.9534 71.3156C92.64 72.1424 93.7163 72.5388 94.7751 72.3549C95.8339 72.1709 96.7134 71.4346 97.0808 70.4247L94.2615 69.3992ZM89.6842 65.7189L87.092 64.2086C86.5913 65.0681 86.5491 66.1198 86.9793 67.0166L89.6842 65.7189ZM91.2105 74.0683L89.7364 76.6811C90.5904 77.163 91.6261 77.197 92.51 76.7723C93.3938 76.3475 94.0143 75.5176 94.1716 74.5497L91.2105 74.0683ZM86.2716 72.362L85.718 69.4136C84.2047 69.6977 83.1522 71.0815 83.2824 72.6158L86.2716 72.362ZM84.6552 78.7374L86.0431 81.3971L86.0439 81.3967L84.6552 78.7374ZM78.4617 81.8783L77.5139 79.0319L77.5122 79.0325L78.4617 81.8783ZM75.2291 80.174L76.4418 82.9179L76.4498 82.9144L75.2291 80.174ZM68.1365 80.174L69.8006 77.6778C68.5689 76.8567 66.9224 77.0567 65.9231 78.1489L68.1365 80.174ZM67.8004 80.5413L65.587 78.5162C65.3356 78.791 65.1375 79.1102 65.003 79.4575L67.8004 80.5413ZM61.7689 87.12L63.238 89.7358L63.2381 89.7357L61.7689 87.12ZM58.7101 88.5234L59.1084 91.4968C59.3299 91.4672 59.5474 91.4128 59.7568 91.3348L58.7101 88.5234ZM50.0011 83.866L53.0011 83.8599C52.9978 82.2042 51.6538 80.8643 49.9981 80.866C48.3424 80.8676 47.0011 82.2103 47.0011 83.866L50.0011 83.866ZM41.2922 88.5331L40.2454 91.3446C40.4549 91.4226 40.6723 91.4769 40.8938 91.5066L41.2922 88.5331ZM38.2314 87.1298L36.7604 89.7444L36.7626 89.7457L38.2314 87.1298ZM32.2273 80.5785L35.0232 79.4909C34.8885 79.1446 34.6906 78.8263 34.4397 78.5522L32.2273 80.5785ZM31.8658 80.1837L34.0781 78.1575C33.0789 77.0665 31.4335 76.8668 30.2023 77.6872L31.8658 80.1837ZM24.7732 80.1837L25.9939 77.4433L25.9914 77.4422L24.7732 80.1837ZM21.5406 81.89L20.5911 84.7358L20.5928 84.7363L21.5406 81.89ZM15.3451 78.7472L13.9572 81.4069L13.9583 81.4074L15.3451 78.7472ZM13.7287 72.3738L16.718 72.6263C16.8476 71.0924 15.7952 69.7094 14.2823 69.4253L13.7287 72.3738ZM8.79177 74.0781L5.83086 74.5608C5.98859 75.5283 6.60907 76.3577 7.49268 76.7822C8.37629 77.2067 9.41155 77.1727 10.2654 76.6912L8.79177 74.0781ZM10.3181 65.7286L13.0225 67.0272C13.4538 66.129 13.411 65.0753 12.9083 64.2151L10.3181 65.7286ZM5.73884 69.4109L2.9196 70.4365C3.28704 71.4465 4.1667 72.1828 5.22562 72.3666C6.28453 72.5505 7.36091 72.1539 8.04731 71.3268L5.73884 69.4109ZM7.71481 58.4562L10.0327 60.3607C10.8386 59.3799 10.94 57.998 10.2858 56.9101L7.71481 58.4562ZM3.92321 60.1624L0.987548 60.7804C1.22837 61.9244 2.11184 62.8243 3.25123 63.0862C4.39062 63.3481 5.57836 62.9242 6.29449 62.0001L3.92321 60.1624ZM7.9572 47.1732L10.2141 49.1496C11.2885 47.9228 11.1861 46.0625 9.9836 44.961C8.78112 43.8595 6.91898 43.9203 5.79088 45.0978L7.9572 47.1732ZM3.94274 51.3636L0.950104 51.5736C1.03319 52.7576 1.80649 53.7813 2.92266 54.1848C4.03883 54.5884 5.28799 54.296 6.10906 53.4389L3.94274 51.3636ZM8.24841 41.224L10.4547 43.2567C11.5106 42.1107 11.5133 40.347 10.4608 39.1978C9.40825 38.0486 7.65112 37.8965 6.41689 38.8479L8.24841 41.224ZM5.10954 43.6435L2.11386 43.4826C2.05099 44.6535 2.676 45.7536 3.71392 46.2991C4.75183 46.8446 6.01241 46.7354 6.94106 46.0195L5.10954 43.6435ZM9.41716 35.7456L11.1609 38.1868C12.3959 37.3047 12.7775 35.6391 12.0498 34.3072C11.3221 32.9753 9.71424 32.3967 8.3047 32.9595L9.41716 35.7456ZM7.17536 36.6408L4.37615 35.5617C3.94707 36.6747 4.21822 37.9363 5.06675 38.7747C5.91529 39.6132 7.17996 39.8692 8.28782 39.4269L7.17536 36.6408ZM16.7814 27.662L16.9528 30.6571C18.1331 30.5896 19.1637 29.8352 19.5847 28.7304C20.0058 27.6257 19.7387 26.3767 18.9027 25.5407L16.7814 27.662ZM14.8953 18.6853L17.8643 19.1153C18.0164 18.0654 17.6027 17.0133 16.7762 16.3482L14.8953 18.6853ZM13.6386 4.32005L12.4012 1.58714C11.9765 1.77946 11.6024 2.06814 11.3087 2.43026L13.6386 4.32005ZM30.3394 11.9501L27.8945 13.6886C28.7816 14.9362 30.4658 15.3158 31.8023 14.5693L30.3394 11.9501ZM50.0011 6.20404L50.0568 9.20352C51.6917 9.17319 53.0011 7.8392 53.0011 6.20404H50.0011ZM50.0011 6.19427L50.0568 3.19479C49.2516 3.17985 48.4743 3.48924 47.8996 4.05337C47.3249 4.61749 47.0011 5.38897 47.0011 6.19427H50.0011ZM69.6629 11.9404L68.2 14.5595C69.5366 15.3061 71.221 14.9264 72.108 13.6786L69.6629 11.9404ZM86.3617 4.30833L88.6916 2.41854C88.3978 2.05628 88.0236 1.76753 87.5986 1.57521L86.3617 4.30833ZM85.1051 18.6736L83.2241 16.3365C82.3977 17.0015 81.984 18.0536 82.136 19.1035L85.1051 18.6736ZM83.2191 27.6523L81.0978 25.531C80.2617 26.3671 79.9947 27.6163 80.416 28.7211C80.8372 29.8259 81.8682 30.5803 83.0487 30.6474L83.2191 27.6523ZM92.8271 36.629L91.7155 39.4155C92.8233 39.8574 94.0877 39.6012 94.936 38.7627C95.7843 37.9242 96.0553 36.6629 95.6263 35.55L92.8271 36.629ZM90.5834 35.7339L91.695 32.9475C90.2854 32.3851 88.678 32.964 87.9505 34.2958C87.2231 35.6277 87.6048 37.293 88.8397 38.1751L90.5834 35.7339ZM94.891 43.6318L93.0595 46.0078C93.9881 46.7236 95.2487 46.8328 96.2866 46.2874C97.3246 45.7419 97.9496 44.6417 97.8867 43.4709L94.891 43.6318ZM91.7521 41.2122L93.5836 38.8362C92.35 37.8853 90.5939 38.0366 89.5412 39.1845C88.4884 40.3324 88.4892 42.095 89.543 43.2419L91.7521 41.2122ZM96.0578 51.3538L93.8915 53.4292C94.7125 54.2862 95.9617 54.5787 97.0779 54.1751C98.194 53.7715 98.9673 52.7478 99.0504 51.5638L96.0578 51.3538ZM92.0433 47.1634L94.2096 45.0881C93.0816 43.9106 91.2197 43.8497 90.0172 44.951C88.8147 46.0523 88.712 47.9124 89.7859 49.1393L92.0433 47.1634ZM96.0771 60.1527C98.4489 58.3156 98.4485 58.3151 98.4481 58.3146C98.4479 58.3144 98.4475 58.3138 98.4472 58.3134C98.4466 58.3126 98.4459 58.3118 98.4452 58.3109C98.4438 58.3091 98.4422 58.3071 98.4405 58.3048C98.437 58.3003 98.4328 58.295 98.4279 58.2888C98.4182 58.2764 98.4058 58.2607 98.3908 58.2419C98.3608 58.2044 98.3204 58.1543 98.2705 58.0941C98.1714 57.9741 98.0325 57.8107 97.863 57.623C97.5361 57.2609 97.0427 56.7499 96.4617 56.2846C95.9564 55.8798 95.0394 55.2219 93.8846 55.0063C93.2427 54.8864 92.421 54.8845 91.5756 55.2475C90.7171 55.6163 90.1108 56.2428 89.7145 56.9037L94.8604 59.9892C94.7334 60.201 94.4475 60.5441 93.9434 60.7606C93.4525 60.9714 93.0194 60.9484 92.7833 60.9043C92.5682 60.8642 92.4683 60.8002 92.5029 60.8195C92.5269 60.8328 92.5971 60.8765 92.7106 60.9674C92.9424 61.1531 93.1945 61.4055 93.4098 61.644C93.5115 61.7566 93.593 61.8527 93.6464 61.9173C93.6728 61.9493 93.6917 61.9727 93.702 61.9856C93.7071 61.992 93.7101 61.9958 93.7107 61.9966C93.711 61.9969 93.7107 61.9966 93.7098 61.9955C93.7094 61.9949 93.7088 61.9941 93.708 61.9932C93.7077 61.9927 93.7073 61.9922 93.7068 61.9916C93.7066 61.9913 93.7062 61.9908 93.7061 61.9907C93.7057 61.9902 93.7053 61.9897 96.0771 60.1527ZM92.2875 58.4464C89.9694 60.3508 89.9687 60.3499 89.9679 60.349C89.9677 60.3487 89.967 60.3478 89.9665 60.3472C89.9656 60.3461 89.9647 60.3451 89.9639 60.3441C89.9624 60.3422 89.961 60.3405 89.9599 60.3391C89.9577 60.3364 89.9564 60.3348 89.956 60.3343C89.9552 60.3333 89.958 60.3368 89.9641 60.3446C89.9762 60.3602 90.0013 60.393 90.037 60.442C90.1087 60.5403 90.2216 60.7015 90.3572 60.9179C90.631 61.3547 90.983 61.9926 91.2803 62.771C91.8781 64.336 92.1975 66.2973 91.4422 68.3736L97.0808 70.4247C98.4812 66.575 97.8135 63.06 96.8854 60.6301C96.4197 59.4111 95.874 58.4219 95.4409 57.731C95.2231 57.3835 95.0301 57.1058 94.8844 56.906C94.8114 56.8059 94.7499 56.7249 94.7026 56.6641C94.6789 56.6336 94.6588 56.6081 94.6425 56.5878C94.6344 56.5776 94.6272 56.5687 94.621 56.561C94.6179 56.5572 94.6151 56.5537 94.6125 56.5506C94.6112 56.549 94.61 56.5475 94.6088 56.5461C94.6082 56.5454 94.6074 56.5443 94.6071 56.544C94.6063 56.543 94.6055 56.542 92.2875 58.4464ZM94.2615 69.3992C96.5695 67.4827 96.5694 67.4824 96.5691 67.4822C96.5691 67.4821 96.5688 67.4818 96.5687 67.4816C96.5683 67.4812 96.5679 67.4807 96.5674 67.4801C96.5664 67.4789 96.5652 67.4775 96.5638 67.4758C96.5609 67.4723 96.5571 67.4677 96.5523 67.462C96.5428 67.4506 96.5296 67.4348 96.5129 67.415C96.4794 67.3752 96.432 67.3191 96.3723 67.2492C96.2532 67.1096 96.0843 66.9139 95.8802 66.6836C95.4767 66.2279 94.9154 65.6137 94.3181 65.0227C93.7585 64.469 93.0219 63.7886 92.2855 63.3156C91.9582 63.1053 91.329 62.7332 90.5373 62.6059C90.1041 62.5363 89.463 62.514 88.7649 62.7816C88.0134 63.0698 87.4475 63.5984 87.092 64.2086L92.2763 67.2291C91.9992 67.7047 91.5377 68.1444 90.913 68.3839C90.3417 68.603 89.8498 68.5725 89.5846 68.5298C89.129 68.4565 88.9113 68.2794 89.0426 68.3637C89.2232 68.4798 89.5917 68.7868 90.098 69.2878C90.5667 69.7514 91.0321 70.2592 91.3888 70.6618C91.5648 70.8606 91.7094 71.0282 91.8087 71.1445C91.8583 71.2026 91.8963 71.2476 91.9211 71.277C91.9335 71.2917 91.9425 71.3025 91.948 71.3091C91.9507 71.3123 91.9525 71.3146 91.9535 71.3157C91.9539 71.3162 91.9542 71.3165 91.9542 71.3165C91.9542 71.3165 91.9541 71.3164 91.954 71.3163C91.9539 71.3162 91.9538 71.316 91.9538 71.316C91.9536 71.3158 91.9534 71.3156 94.2615 69.3992ZM89.6842 65.7189C86.9793 67.0166 86.9791 67.016 86.9788 67.0154C86.9787 67.0153 86.9785 67.0147 86.9783 67.0144C86.978 67.0137 86.9777 67.0131 86.9774 67.0126C86.9769 67.0116 86.9766 67.0108 86.9763 67.0102C86.9758 67.0092 86.9758 67.0091 86.9763 67.0101C86.9772 67.0121 86.9801 67.0182 86.9847 67.0282C86.9939 67.0481 87.0101 67.0836 87.0322 67.1335C87.0764 67.2334 87.1436 67.3898 87.2248 67.5931C87.388 68.002 87.6022 68.5869 87.7988 69.2728C88.2116 70.7127 88.4588 72.2987 88.2494 73.5869L94.1716 74.5497C94.5897 71.9779 94.0738 69.3892 93.5665 67.6194C93.3031 66.7004 93.018 65.9217 92.797 65.3683C92.6861 65.0903 92.5899 64.8658 92.5188 64.7051C92.4832 64.6247 92.4537 64.56 92.4317 64.5123C92.4207 64.4885 92.4115 64.4688 92.4044 64.4536C92.4008 64.446 92.3977 64.4395 92.3951 64.4341C92.3938 64.4314 92.3927 64.4289 92.3916 64.4268C92.3911 64.4257 92.3907 64.4247 92.3902 64.4238C92.39 64.4233 92.3897 64.4227 92.3896 64.4224C92.3893 64.4218 92.389 64.4212 89.6842 65.7189ZM91.2105 74.0683C92.6847 71.4555 92.6843 71.4553 92.684 71.4551C92.6839 71.455 92.6835 71.4548 92.6833 71.4547C92.6828 71.4544 92.6822 71.4541 92.6816 71.4537C92.6804 71.453 92.6789 71.4522 92.6773 71.4513C92.6739 71.4494 92.6698 71.4471 92.6647 71.4443C92.6547 71.4387 92.6413 71.4312 92.6247 71.422C92.5916 71.4037 92.5457 71.3784 92.4883 71.3473C92.3739 71.2851 92.2129 71.1991 92.0166 71.0978C91.6276 70.8971 91.0838 70.6279 90.4793 70.3643C89.8865 70.1057 89.1715 69.8241 88.4523 69.6243C87.8388 69.4539 86.7887 69.2125 85.718 69.4136L86.8253 75.3105C86.4728 75.3767 86.3993 75.2812 86.8465 75.4054C87.188 75.5003 87.6179 75.6621 88.0803 75.8638C88.5309 76.0604 88.9525 76.2684 89.265 76.4297C89.4196 76.5094 89.5434 76.5757 89.6261 76.6206C89.6673 76.6429 89.6981 76.6599 89.7169 76.6703C89.7264 76.6755 89.7328 76.6791 89.7361 76.681C89.7378 76.6819 89.7386 76.6824 89.7387 76.6824C89.7387 76.6824 89.7385 76.6823 89.7381 76.6821C89.738 76.682 89.7377 76.6819 89.7374 76.6817C89.7373 76.6816 89.737 76.6815 89.7369 76.6814C89.7367 76.6813 89.7364 76.6811 91.2105 74.0683ZM86.2716 72.362C83.2824 72.6158 83.2824 72.6152 83.2823 72.6147C83.2823 72.6145 83.2822 72.614 83.2822 72.6137C83.2822 72.613 83.2821 72.6125 83.2821 72.612C83.282 72.611 83.2819 72.6104 83.2819 72.6101C83.2819 72.6094 83.2819 72.6099 83.282 72.6116C83.2823 72.6149 83.2829 72.623 83.2838 72.6354C83.2856 72.6604 83.2884 72.7027 83.2917 72.7601C83.2981 72.8754 83.306 73.0492 83.3102 73.2641C83.3186 73.7018 83.3106 74.2718 83.2531 74.8467C83.1932 75.4461 83.0922 75.9146 82.978 76.2128C82.8453 76.5591 82.8464 76.2976 83.2665 76.0782L86.0439 81.3967C87.4971 80.6378 88.2167 79.3097 88.5808 78.3595C88.9634 77.3611 89.1374 76.3032 89.2233 75.4436C89.3117 74.5595 89.3204 73.738 89.3091 73.1488C89.3033 72.8503 89.2922 72.602 89.2822 72.4234C89.2772 72.3339 89.2724 72.2613 89.2686 72.2081C89.2667 72.1815 89.265 72.1597 89.2637 72.143C89.2631 72.1346 89.2625 72.1275 89.262 72.1217C89.2618 72.1188 89.2616 72.1162 89.2614 72.114C89.2613 72.1129 89.2612 72.1119 89.2611 72.1109C89.2611 72.1104 89.261 72.1098 89.261 72.1095C89.261 72.1089 89.2609 72.1083 86.2716 72.362ZM83.2674 76.0778C83.8034 75.7981 84.3738 75.9316 84.6064 76.0562C84.6927 76.1024 84.5811 76.0581 84.3023 75.7064C84.0493 75.3871 83.8216 75.0296 83.558 74.6183C83.4523 74.4534 83.2854 74.1919 83.1202 73.972C83.0429 73.8691 82.8819 73.6604 82.6581 73.4511C82.545 73.3453 82.3422 73.169 82.0579 73.0056C81.7914 72.8525 81.2535 72.5947 80.5256 72.5947V78.5947C79.8201 78.5947 79.3073 78.3451 79.0685 78.2078C78.8119 78.0604 78.6393 77.9077 78.5589 77.8325C78.4689 77.7483 78.4077 77.6787 78.3787 77.6447C78.3471 77.6077 78.3279 77.5823 78.323 77.5758C78.3155 77.5658 78.3266 77.5801 78.3653 77.6382C78.4018 77.6932 78.4463 77.762 78.5066 77.856C78.7285 78.2022 79.1238 78.8324 79.6003 79.4334C80.051 80.002 80.7754 80.8107 81.7733 81.3452C82.9175 81.9581 84.4752 82.2153 86.0431 81.3971L83.2674 76.0778ZM80.5256 72.5947C79.4321 72.5947 78.6895 73.1569 78.3262 73.5364C77.9848 73.8931 77.8082 74.2508 77.7326 74.4172C77.5752 74.7637 77.5045 75.0835 77.4766 75.2144C77.4103 75.5262 77.3668 75.8819 77.3366 76.1398C77.2644 76.7573 77.2072 77.3666 77.102 78.0336C76.9952 78.7098 76.8726 79.2013 76.7529 79.4932C76.5784 79.9187 76.6845 79.3081 77.5139 79.0319L79.4095 84.7246C81.1808 84.1348 81.9711 82.5819 82.304 81.7703C82.6916 80.8253 82.8998 79.7851 83.0286 78.9688C83.1589 78.1434 83.2419 77.2994 83.296 76.8367C83.329 76.5545 83.3452 76.4634 83.3452 76.4634C83.343 76.4736 83.3343 76.5137 83.317 76.5734C83.3017 76.6258 83.2647 76.7463 83.195 76.8995C83.1383 77.0243 82.9814 77.3502 82.6605 77.6854C82.3178 78.0434 81.5965 78.5947 80.5256 78.5947V72.5947ZM77.5122 79.0325C77.7851 78.9414 78.2057 78.9454 78.5775 79.1247C78.8206 79.2419 78.8792 79.3622 78.7179 79.1741C78.6395 79.0827 78.5819 79.0082 78.4447 78.838C78.3404 78.7087 78.1496 78.4728 77.9228 78.2477C77.7153 78.0418 77.2793 77.6396 76.6297 77.3816C75.8524 77.0729 74.9125 77.0308 74.0084 77.4335L76.4498 82.9144C75.7474 83.2272 75.001 83.1906 74.4151 82.9579C73.9569 82.776 73.7101 82.5202 73.6962 82.5064C73.6629 82.4733 73.6699 82.4752 73.774 82.6042C73.8451 82.6924 74.0064 82.897 74.1637 83.0804C74.4738 83.442 75.0714 84.0951 75.9713 84.5291C76.9999 85.0251 78.1953 85.1297 79.4112 84.724L77.5122 79.0325ZM74.0164 77.43C73.3978 77.7034 72.9705 78.1006 72.7022 78.4036C72.4316 78.7093 72.2358 79.0183 72.1025 79.2501C71.8624 79.6676 71.6326 80.1926 71.5415 80.3884C71.3883 80.7174 71.3642 80.7231 71.4291 80.6407C71.4964 80.5553 72.067 79.8671 73.1613 79.8671V85.8671C74.748 85.8671 75.7223 84.887 76.1432 84.3525C76.5617 83.821 76.8413 83.2205 76.9808 82.9209C77.1823 82.4881 77.2342 82.3622 77.3038 82.2412C77.4196 82.0398 77.1837 82.59 76.4418 82.9179L74.0164 77.43ZM73.1613 79.8671C73.5827 79.8671 73.8195 79.9794 73.678 79.9285C73.6149 79.9058 73.4838 79.8515 73.2766 79.7504C72.867 79.5504 72.3503 79.2613 71.812 78.9415C71.2835 78.6275 70.7779 78.3099 70.4014 78.0687C70.2141 77.9487 70.0612 77.8492 69.9562 77.7804C69.9038 77.746 69.8634 77.7194 69.8369 77.7018C69.8236 77.6931 69.8138 77.6866 69.8077 77.6825C69.8046 77.6805 69.8025 77.6791 69.8013 77.6783C69.8007 77.6779 69.8003 77.6776 69.8002 77.6775C69.8001 77.6775 69.8001 77.6775 69.8002 77.6775C69.8002 77.6776 69.8003 77.6776 69.8003 77.6776C69.8004 77.6777 69.8006 77.6778 68.1365 80.174C66.4724 82.6701 66.4726 82.6702 66.4727 82.6703C66.4728 82.6704 66.473 82.6705 66.4732 82.6706C66.4735 82.6708 66.4738 82.6711 66.4743 82.6714C66.4751 82.6719 66.4762 82.6727 66.4776 82.6736C66.4803 82.6754 66.4839 82.6778 66.4886 82.6809C66.4978 82.687 66.5108 82.6956 66.5274 82.7066C66.5605 82.7285 66.6079 82.7597 66.6678 82.799C66.7876 82.8775 66.9579 82.9883 67.1648 83.1209C67.5766 83.3846 68.1424 83.7403 68.747 84.0996C69.3419 84.4531 70.0198 84.8373 70.6447 85.1423C70.9547 85.2936 71.3009 85.4498 71.6472 85.5743C71.9152 85.6707 72.4936 85.8671 73.1613 85.8671V79.8671ZM65.9231 78.1489L65.587 78.5162L70.0137 82.5664L70.3499 82.1991L65.9231 78.1489ZM65.003 79.4575C64.3378 81.1743 63.0028 82.9861 60.2997 84.5044L63.2381 89.7357C67.098 87.5676 69.4062 84.7005 70.5977 81.6251L65.003 79.4575ZM60.2999 84.5043C59.5402 84.931 58.668 85.3379 57.6634 85.7119L59.7568 91.3348C61.0312 90.8604 62.1879 90.3255 63.238 89.7358L60.2999 84.5043ZM58.7101 88.5234C58.3119 85.5499 58.3128 85.5498 58.3137 85.5497C58.314 85.5496 58.3148 85.5495 58.3153 85.5495C58.3163 85.5493 58.3172 85.5492 58.318 85.5491C58.3195 85.5489 58.3206 85.5488 58.3211 85.5487C58.3222 85.5486 58.3213 85.5487 58.3186 85.549C58.313 85.5497 58.2999 85.5513 58.2797 85.5535C58.2393 85.5581 58.171 85.5652 58.079 85.5731C57.8942 85.589 57.6186 85.6077 57.284 85.6152C56.5961 85.6305 55.7466 85.5964 54.9502 85.4366C54.121 85.2703 53.602 85.0177 53.334 84.7849C53.1781 84.6495 53.0023 84.4574 53.0011 83.8599L47.0011 83.872C47.0058 86.1856 47.9216 88.0313 49.3997 89.315C50.7657 90.5013 52.4233 91.0492 53.7698 91.3194C55.1492 91.5962 56.4748 91.6347 57.418 91.6137C57.899 91.6029 58.303 91.576 58.5938 91.551C58.7396 91.5384 58.8582 91.5262 58.9452 91.5165C58.9887 91.5117 59.0245 91.5074 59.0518 91.504C59.0655 91.5024 59.0771 91.5009 59.0865 91.4997C59.0913 91.4991 59.0954 91.4985 59.0991 91.4981C59.1009 91.4978 59.1026 91.4976 59.1041 91.4974C59.1049 91.4973 59.106 91.4971 59.1064 91.4971C59.1074 91.497 59.1084 91.4968 58.7101 88.5234ZM47.0011 83.866C47.0011 84.4672 46.8246 84.6595 46.6702 84.794C46.4032 85.0265 45.8852 85.2794 45.0556 85.4461C44.2588 85.6062 43.4086 85.6404 42.7199 85.625C42.3849 85.6176 42.1089 85.5989 41.9238 85.5829C41.8317 85.575 41.7633 85.5679 41.7228 85.5633C41.7026 85.5611 41.6895 85.5595 41.6839 85.5588C41.6811 85.5585 41.6802 85.5584 41.6813 85.5585C41.6818 85.5586 41.6829 85.5587 41.6844 85.5589C41.6852 85.559 41.6861 85.5591 41.6871 85.5592C41.6876 85.5593 41.6885 85.5594 41.6887 85.5595C41.6896 85.5596 41.6905 85.5597 41.2922 88.5331C40.8938 91.5066 40.8948 91.5067 40.8958 91.5068C40.8962 91.5069 40.8972 91.507 40.898 91.5071C40.8996 91.5073 40.9013 91.5076 40.9031 91.5078C40.9067 91.5083 40.9109 91.5088 40.9156 91.5094C40.9251 91.5107 40.9367 91.5121 40.9504 91.5138C40.9778 91.5172 41.0135 91.5214 41.0571 91.5263C41.1442 91.536 41.2629 91.5482 41.4089 91.5608C41.7001 91.5859 42.1045 91.6128 42.586 91.6235C43.5302 91.6446 44.8572 91.6059 46.2377 91.3285C47.5854 91.0577 49.2445 90.5084 50.6105 89.3188C52.089 88.0313 53.0011 86.1817 53.0011 83.866H47.0011ZM42.3389 85.7217C41.333 85.3472 40.4592 84.9401 39.7002 84.514L36.7626 89.7457C37.8138 90.3359 38.9724 90.8707 40.2454 91.3446L42.3389 85.7217ZM39.7024 84.5152C37.0187 83.0053 35.689 81.2023 35.0232 79.4909L29.4314 81.666C30.6223 84.7276 32.9203 87.584 36.7604 89.7444L39.7024 84.5152ZM34.4397 78.5522L34.0781 78.1575L29.6534 82.2099L30.015 82.6047L34.4397 78.5522ZM31.8658 80.1837C30.2023 77.6872 30.2024 77.6871 30.2025 77.687C30.2025 77.687 30.2026 77.687 30.2026 77.6869C30.2027 77.6869 30.2027 77.6869 30.2026 77.6869C30.2025 77.687 30.2022 77.6873 30.2016 77.6876C30.2004 77.6884 30.1982 77.6899 30.1952 77.6919C30.189 77.696 30.1792 77.7025 30.166 77.7112C30.1394 77.7288 30.099 77.7554 30.0465 77.7898C29.9415 77.8586 29.7885 77.9581 29.6011 78.0781C29.2244 78.3193 28.7185 78.6369 28.1898 78.951C27.6513 79.2708 27.1343 79.5599 26.7244 79.7599C26.5171 79.8611 26.3859 79.9154 26.3226 79.9381C26.181 79.9891 26.4177 79.8769 26.839 79.8769V85.8769C27.5066 85.8769 28.0851 85.6805 28.353 85.5842C28.6993 85.4596 29.0455 85.3036 29.3556 85.1522C29.9806 84.8473 30.6587 84.4631 31.2538 84.1096C31.8586 83.7504 32.4247 83.3947 32.8366 83.131C33.0436 82.9984 33.214 82.8876 33.3338 82.8091C33.3938 82.7698 33.4412 82.7386 33.4744 82.7167C33.4909 82.7057 33.5039 82.6971 33.5132 82.691C33.5178 82.6879 33.5214 82.6855 33.5241 82.6837C33.5255 82.6828 33.5266 82.6821 33.5275 82.6815C33.5279 82.6812 33.5283 82.6809 33.5286 82.6807C33.5287 82.6806 33.5289 82.6805 33.529 82.6805C33.5292 82.6804 33.5293 82.6803 31.8658 80.1837ZM26.839 79.8769C27.9323 79.8769 28.5029 80.564 28.5708 80.6501C28.6361 80.733 28.6122 80.7277 28.4593 80.3993C28.3686 80.2043 28.1391 79.6795 27.9001 79.2631C27.7673 79.0317 27.5723 78.7232 27.3029 78.4179C27.036 78.1154 26.6105 77.718 25.9939 77.4433L23.5525 82.9241C22.814 82.5952 22.5798 82.0469 22.696 82.2494C22.7661 82.3716 22.8179 82.4976 23.0196 82.931C23.1592 83.2309 23.4388 83.8315 23.8577 84.3631C24.2791 84.8981 25.2533 85.8769 26.839 85.8769V79.8769ZM25.9914 77.4422C25.0886 77.041 24.1504 77.0828 23.3737 77.3907C22.7241 77.6482 22.2878 78.05 22.0796 78.2563C21.8523 78.4817 21.6612 78.7177 21.5566 78.8474C21.4188 79.0182 21.3614 79.0925 21.2825 79.1845C21.1205 79.3735 21.1787 79.2537 21.4209 79.1365C21.7922 78.9571 22.2136 78.9521 22.4884 79.0436L20.5928 84.7363C21.8096 85.1415 23.0049 85.0352 24.0325 84.5384C24.9311 84.104 25.5279 83.451 25.8374 83.09C25.9943 82.907 26.1558 82.7022 26.2265 82.6145C26.3303 82.4859 26.3373 82.4841 26.3037 82.5174C26.2894 82.5316 26.0427 82.7869 25.5848 82.9684C24.9999 83.2003 24.2555 83.2365 23.555 82.9252L25.9914 77.4422ZM22.4901 79.0442C23.3167 79.32 23.4224 79.928 23.248 79.5032C23.128 79.211 23.0053 78.7194 22.8985 78.0432C22.7932 77.3763 22.7359 76.7669 22.6637 76.1495C22.6335 75.8917 22.5901 75.536 22.5237 75.2242C22.4958 75.0933 22.4252 74.7735 22.2678 74.427C22.1921 74.2606 22.0155 73.9029 21.6742 73.5462C21.3109 73.1667 20.5682 72.6044 19.4748 72.6044V78.6044C18.4038 78.6044 17.6826 78.0532 17.3398 77.6951C17.0189 77.3599 16.862 77.034 16.8053 76.9092C16.7357 76.756 16.6986 76.6355 16.6833 76.5831C16.666 76.5234 16.6573 76.4834 16.6551 76.4732C16.6551 76.4732 16.6713 76.5643 16.7043 76.8466C16.7585 77.3094 16.8415 78.1534 16.972 78.9792C17.1009 79.7957 17.3093 80.8362 17.6974 81.7816C18.031 82.5942 18.8214 84.1453 20.5911 84.7358L22.4901 79.0442ZM19.4748 72.6044C18.7433 72.6044 18.2037 72.8647 17.9379 73.0181C17.654 73.1819 17.4516 73.3585 17.339 73.4642C17.1162 73.6734 16.9558 73.8817 16.8789 73.9842C16.7146 74.2035 16.5481 74.4646 16.4427 74.6292C16.1798 75.0398 15.9522 75.3973 15.6995 75.7161C15.421 76.0675 15.3094 76.1118 15.3956 76.0656C15.628 75.9413 16.1972 75.8082 16.7319 76.087L13.9583 81.4074C15.5259 82.2246 17.083 81.968 18.2275 81.3553C19.2259 80.8208 19.9506 80.0121 20.4015 79.4432C20.8783 78.8417 21.2735 78.2116 21.4956 77.8646C21.5559 77.7705 21.6004 77.7015 21.6371 77.6463C21.6758 77.588 21.6871 77.5734 21.6798 77.583C21.6751 77.5894 21.656 77.6146 21.6247 77.6515C21.5959 77.6853 21.535 77.7548 21.4453 77.8389C21.3654 77.9139 21.1931 78.067 20.9367 78.2149C20.6985 78.3524 20.1839 78.6044 19.4748 78.6044V72.6044ZM16.7329 76.0875C17.1547 76.3076 17.1561 76.5703 17.0232 76.2236C16.909 75.9256 16.808 75.4571 16.748 74.8576C16.6904 74.2827 16.6822 73.7126 16.6905 73.2748C16.6945 73.0599 16.7024 72.886 16.7088 72.7707C16.712 72.7133 16.7149 72.6709 16.7166 72.646C16.7175 72.6336 16.7181 72.6255 16.7184 72.6221C16.7185 72.6204 16.7186 72.6199 16.7185 72.6206C16.7185 72.6209 16.7184 72.6216 16.7184 72.6225C16.7183 72.623 16.7183 72.6236 16.7182 72.6242C16.7182 72.6245 16.7181 72.625 16.7181 72.6252C16.7181 72.6257 16.718 72.6263 13.7287 72.3738C10.7393 72.1212 10.7393 72.1218 10.7392 72.1225C10.7392 72.1227 10.7392 72.1233 10.7391 72.1238C10.739 72.1248 10.7389 72.1258 10.7389 72.1269C10.7387 72.1292 10.7385 72.1317 10.7382 72.1346C10.7378 72.1404 10.7372 72.1475 10.7365 72.1559C10.7352 72.1726 10.7336 72.1944 10.7317 72.221C10.7279 72.2742 10.7231 72.3467 10.7182 72.4362C10.7082 72.6148 10.6972 72.8631 10.6915 73.1615C10.6804 73.7505 10.6893 74.5718 10.7779 75.4556C10.8639 76.3149 11.0381 77.3725 11.4204 78.3704C11.7842 79.3197 12.5036 80.6483 13.9572 81.4069L16.7329 76.0875ZM14.2823 69.4253C13.2121 69.2243 12.1626 69.4652 11.549 69.6355C10.83 69.8351 10.1152 70.1164 9.52263 70.3747C8.91836 70.6382 8.37478 70.907 7.98587 71.1076C7.78972 71.2088 7.62881 71.2948 7.51436 71.3568C7.45705 71.3879 7.41114 71.4132 7.37802 71.4315C7.36146 71.4407 7.34807 71.4482 7.33804 71.4538C7.33302 71.4566 7.32883 71.4589 7.32551 71.4608C7.32384 71.4617 7.3224 71.4625 7.32116 71.4632C7.32055 71.4636 7.31999 71.4639 7.31948 71.4642C7.31922 71.4643 7.31888 71.4645 7.31876 71.4646C7.31843 71.4648 7.31812 71.4649 8.79177 74.0781C10.2654 76.6912 10.2651 76.6913 10.2649 76.6915C10.2648 76.6915 10.2645 76.6917 10.2644 76.6918C10.2641 76.6919 10.2638 76.6921 10.2636 76.6922C10.2633 76.6924 10.2631 76.6925 10.2631 76.6925C10.2632 76.6924 10.264 76.692 10.2657 76.691C10.269 76.6892 10.2754 76.6856 10.2848 76.6804C10.3037 76.6699 10.3344 76.653 10.3756 76.6307C10.4582 76.5859 10.582 76.5197 10.7364 76.44C11.0487 76.2789 11.47 76.0711 11.9204 75.8748C12.3825 75.6733 12.8121 75.5117 13.1535 75.417C13.6003 75.293 13.527 75.3883 13.1751 75.3222L14.2823 69.4253ZM11.7527 73.5953C11.5428 72.3079 11.7898 70.7226 12.2027 69.2829C12.3994 68.5972 12.6137 68.0124 12.777 67.6035C12.8582 67.4003 12.9255 67.244 12.9697 67.1441C12.9918 67.0942 13.008 67.0587 13.0172 67.0388C13.0218 67.0288 13.0247 67.0227 13.0256 67.0208C13.0261 67.0198 13.0261 67.0198 13.0256 67.0209C13.0253 67.0214 13.0249 67.0222 13.0244 67.0232C13.0242 67.0238 13.0239 67.0244 13.0236 67.025C13.0234 67.0253 13.0232 67.0259 13.0231 67.0261C13.0228 67.0266 13.0225 67.0272 10.3181 65.7286C7.61374 64.4301 7.61344 64.4307 7.61314 64.4313C7.61303 64.4316 7.61272 64.4322 7.6125 64.4327C7.61205 64.4336 7.61157 64.4346 7.61106 64.4357C7.61003 64.4378 7.60887 64.4403 7.60759 64.443C7.60501 64.4484 7.60192 64.4549 7.59833 64.4625C7.59114 64.4778 7.58196 64.4974 7.57093 64.5213C7.54888 64.569 7.51941 64.6337 7.48378 64.7141C7.41259 64.8748 7.31636 65.0993 7.20528 65.3774C6.98412 65.9309 6.69882 66.7097 6.43521 67.6288C5.92761 69.3988 5.41145 71.9882 5.83086 74.5608L11.7527 73.5953ZM12.9083 64.2151C12.5521 63.6054 11.9861 63.078 11.2353 62.7907C10.5378 62.5238 9.89732 62.5461 9.46417 62.6157C8.67255 62.7431 8.04335 63.1151 7.71572 63.3256C6.97887 63.7989 6.24196 64.4796 5.68219 65.0336C5.08472 65.6249 4.52337 66.2395 4.11975 66.6954C3.91565 66.9259 3.74675 67.1216 3.6276 67.2613C3.56793 67.3312 3.52048 67.3874 3.48706 67.4271C3.47034 67.447 3.45711 67.4628 3.44759 67.4742C3.44283 67.4799 3.439 67.4845 3.43612 67.488C3.43468 67.4897 3.43348 67.4912 3.43252 67.4923C3.43204 67.4929 3.43162 67.4934 3.43126 67.4938C3.43108 67.494 3.43086 67.4943 3.43077 67.4944C3.43056 67.4947 3.43037 67.4949 5.73884 69.4109C8.04731 71.3268 8.04715 71.327 8.047 71.3272C8.04697 71.3273 8.04684 71.3274 8.04678 71.3275C8.04666 71.3276 8.0466 71.3277 8.0466 71.3277C8.0466 71.3277 8.04683 71.3274 8.04729 71.3269C8.04821 71.3258 8.05005 71.3236 8.05279 71.3203C8.05825 71.3137 8.06728 71.3029 8.07965 71.2882C8.10439 71.2588 8.14242 71.2138 8.19199 71.1557C8.29131 71.0393 8.43592 70.8716 8.61197 70.6728C8.96864 70.27 9.43412 69.762 9.90281 69.2982C10.4092 68.797 10.7778 68.4899 10.9585 68.3737C11.0897 68.2895 10.8724 68.4663 10.4172 68.5396C10.1523 68.5822 9.66121 68.6127 9.09072 68.3943C8.46695 68.1556 8.0055 67.7172 7.72792 67.2422L12.9083 64.2151ZM8.55807 68.3852C7.80288 66.3094 8.12247 64.3478 8.72074 62.7822C9.01831 62.0035 9.37054 61.3652 9.64456 60.9282C9.78031 60.7117 9.89325 60.5504 9.96499 60.4521C10.0007 60.4031 10.0259 60.3702 10.0381 60.3545C10.0441 60.3467 10.0469 60.3432 10.0462 60.3442C10.0458 60.3447 10.0445 60.3463 10.0423 60.3491C10.0412 60.3504 10.0398 60.3521 10.0382 60.354C10.0374 60.355 10.0366 60.356 10.0357 60.3571C10.0352 60.3577 10.0345 60.3586 10.0342 60.3589C10.0335 60.3598 10.0327 60.3607 7.71481 58.4562C5.39689 56.5517 5.39609 56.5526 5.39529 56.5536C5.395 56.554 5.39417 56.555 5.39359 56.5557C5.39243 56.5571 5.3912 56.5586 5.38991 56.5602C5.38732 56.5633 5.38448 56.5668 5.38139 56.5707C5.37522 56.5783 5.36804 56.5872 5.35989 56.5974C5.34361 56.6177 5.32347 56.6432 5.29981 56.6737C5.25251 56.7345 5.19099 56.8155 5.11798 56.9156C4.97218 57.1154 4.77916 57.3932 4.56124 57.7408C4.12791 58.4319 3.58193 59.4212 3.11602 60.6404C2.18734 63.0707 1.51894 66.5864 2.9196 70.4365L8.55807 68.3852ZM10.2858 56.9101C9.88844 56.2494 9.28143 55.6242 8.42323 55.2567C7.57844 54.8949 6.75755 54.8971 6.11625 55.0169C4.96212 55.2325 4.04532 55.8897 3.53963 56.2945C2.95852 56.7596 2.46498 57.2704 2.13795 57.6323C1.96842 57.8199 1.82955 57.9833 1.73034 58.1033C1.68051 58.1635 1.64005 58.2135 1.61007 58.2511C1.59506 58.2698 1.58263 58.2856 1.57291 58.2979C1.56804 58.3041 1.56385 58.3095 1.56035 58.3139C1.5586 58.3162 1.55703 58.3182 1.55562 58.32C1.55492 58.3209 1.55426 58.3218 1.55365 58.3226C1.55334 58.323 1.55291 58.3235 1.55276 58.3237C1.55234 58.3242 1.55193 58.3248 3.92321 60.1624C6.29449 62.0001 6.29411 62.0006 6.29373 62.0011C6.29362 62.0012 6.29325 62.0017 6.29303 62.002C6.29258 62.0026 6.29217 62.0031 6.29179 62.0036C6.29105 62.0045 6.29046 62.0053 6.29001 62.0059C6.28913 62.007 6.28885 62.0074 6.28915 62.007C6.28976 62.0062 6.29269 62.0025 6.29781 61.9961C6.3081 61.9832 6.32697 61.9598 6.35342 61.9278C6.40678 61.8633 6.48827 61.7673 6.58991 61.6548C6.80523 61.4164 7.05729 61.1642 7.28921 60.9785C7.40275 60.8877 7.47303 60.8439 7.49722 60.8305C7.532 60.8112 7.43253 60.8748 7.21818 60.9149C6.98292 60.9588 6.55096 60.9819 6.06103 60.7721C5.5577 60.5565 5.27147 60.2144 5.14387 60.0022L10.2858 56.9101ZM6.85888 59.5445C6.349 57.1222 6.98883 54.6959 7.96674 52.656C8.93515 50.636 10.1022 49.2775 10.2141 49.1496L5.70028 45.1967C5.39798 45.5419 3.85024 47.3633 2.55635 50.0623C1.27195 52.7414 0.101921 56.5731 0.987548 60.7804L6.85888 59.5445ZM5.79088 45.0978L1.77642 49.2883L6.10906 53.4389L10.1235 49.2485L5.79088 45.0978ZM6.93539 51.1536C6.82127 49.5274 7.51116 47.6665 8.50169 45.9735C9.45458 44.3448 10.463 43.2478 10.4547 43.2567L6.04208 39.1912C5.8989 39.3466 4.57759 40.7991 3.32295 42.9435C2.10597 45.0235 0.710509 48.1592 0.950104 51.5736L6.93539 51.1536ZM6.41689 38.8479L3.27802 41.2675L6.94106 46.0195L10.0799 43.6L6.41689 38.8479ZM8.10523 43.8043C8.19633 42.1076 8.91458 40.7204 9.69994 39.6934C10.4902 38.66 11.2519 38.1218 11.1609 38.1868L7.67344 33.3044C7.43576 33.4742 2.45873 37.0599 2.11386 43.4826L8.10523 43.8043ZM8.3047 32.9595L6.06291 33.8546L8.28782 39.4269L10.5296 38.5318L8.3047 32.9595ZM9.97457 37.7198C11.3927 34.0411 13.3442 32.3285 14.7444 31.5056C15.468 31.0804 16.0957 30.8633 16.5099 30.7545C16.7168 30.7001 16.8684 30.6733 16.9487 30.6613C16.9887 30.6553 17.0105 30.6531 17.012 30.653C17.0127 30.6529 17.0084 30.6533 16.9986 30.6541C16.9937 30.6545 16.9875 30.6549 16.9799 30.6555C16.9761 30.6557 16.9719 30.656 16.9674 30.6563C16.9651 30.6564 16.9628 30.6566 16.9604 30.6567C16.9592 30.6568 16.9573 30.6569 16.9567 30.6569C16.9547 30.657 16.9528 30.6571 16.7814 27.662C16.61 24.6669 16.608 24.6671 16.606 24.6672C16.6053 24.6672 16.6033 24.6673 16.6019 24.6674C16.5991 24.6676 16.5962 24.6678 16.5931 24.668C16.5871 24.6683 16.5807 24.6688 16.5738 24.6692C16.5602 24.6701 16.5449 24.6713 16.528 24.6726C16.4942 24.6752 16.4542 24.6788 16.4081 24.6834C16.3159 24.6927 16.1995 24.7066 16.0612 24.7273C15.7849 24.7687 15.4196 24.8373 14.9855 24.9513C14.1178 25.1793 12.9669 25.5908 11.7043 26.3328C9.13218 27.8445 6.28068 30.6212 4.37615 35.5617L9.97457 37.7198ZM18.9027 25.5407C18.3282 24.9662 17.9028 23.6913 17.7883 21.9348C17.7371 21.1497 17.7576 20.4236 17.7923 19.8913C17.8094 19.628 17.8295 19.4191 17.8444 19.2826C17.8519 19.2145 17.858 19.165 17.8616 19.1362C17.8635 19.1219 17.8647 19.1128 17.8652 19.1092C17.8654 19.1074 17.8655 19.107 17.8654 19.108C17.8653 19.1085 17.8652 19.1093 17.865 19.1106C17.8649 19.1112 17.8648 19.1119 17.8647 19.1127C17.8646 19.1131 17.8645 19.1137 17.8645 19.1139C17.8644 19.1146 17.8643 19.1153 14.8953 18.6853C11.9263 18.2553 11.9262 18.256 11.926 18.2568C11.926 18.2571 11.9259 18.2579 11.9258 18.2585C11.9256 18.2596 11.9255 18.2609 11.9253 18.2623C11.9249 18.265 11.9244 18.2681 11.9239 18.2716C11.923 18.2786 11.9218 18.2871 11.9204 18.2971C11.9177 18.3171 11.9142 18.3431 11.9101 18.3748C11.902 18.4381 11.8916 18.5244 11.8799 18.6311C11.8566 18.8442 11.8284 19.1409 11.8049 19.5017C11.7583 20.2177 11.7286 21.214 11.801 22.3251C11.9338 24.3613 12.4514 27.5747 14.6601 29.7834L18.9027 25.5407ZM16.7762 16.3482C15.2508 15.1205 14.5758 13.9382 14.2817 12.9407C13.9792 11.9147 14.0157 10.8615 14.258 9.83462C14.5027 8.79768 14.9402 7.8666 15.337 7.17687C15.5317 6.83848 15.707 6.57493 15.8266 6.40479C15.8861 6.32014 15.9309 6.25986 15.9564 6.22633C15.9691 6.2096 15.9769 6.19965 15.9791 6.19677C15.9803 6.19534 15.98 6.19569 15.9783 6.19785C15.9774 6.19893 15.9762 6.20047 15.9746 6.20247C15.9738 6.20346 15.9729 6.20458 15.9719 6.20581C15.9714 6.20642 15.9706 6.20743 15.9703 6.20774C15.9695 6.20878 15.9686 6.20984 13.6386 4.32005C11.3087 2.43026 11.3078 2.43139 11.3068 2.43255C11.3065 2.43298 11.3055 2.43417 11.3048 2.43503C11.3034 2.43676 11.3019 2.43861 11.3003 2.44059C11.2972 2.44455 11.2936 2.44902 11.2896 2.45401C11.2816 2.46399 11.2721 2.47602 11.261 2.49007C11.239 2.51815 11.2109 2.55434 11.1775 2.59832C11.1108 2.68621 11.0225 2.80566 10.9181 2.95421C10.7098 3.25048 10.4341 3.66726 10.1364 4.18456C9.5486 5.20619 8.83581 6.68788 8.41843 8.45656C7.99867 10.2353 7.86122 12.3806 8.52655 14.6373C9.20026 16.9225 10.6348 19.1073 13.0143 21.0224L16.7762 16.3482ZM14.8761 7.05296C17.5753 5.83079 20.505 6.87102 23.359 9.06523C24.7164 10.1088 25.865 11.2782 26.682 12.2022C27.0868 12.6599 27.401 13.0469 27.6094 13.3132C27.7135 13.4461 27.7905 13.5481 27.8388 13.613C27.8629 13.6454 27.8798 13.6684 27.8892 13.6813C27.8938 13.6878 27.8967 13.6917 27.8976 13.6929C27.898 13.6935 27.898 13.6935 27.8975 13.6928C27.8972 13.6924 27.8968 13.6919 27.8963 13.6912C27.8961 13.6909 27.8956 13.6902 27.8955 13.69C27.895 13.6894 27.8945 13.6886 30.3394 11.9501C32.7843 10.2116 32.7838 10.2108 32.7831 10.21C32.7829 10.2096 32.7822 10.2087 32.7818 10.208C32.7808 10.2066 32.7796 10.205 32.7784 10.2033C32.7759 10.1998 32.7729 10.1956 32.7694 10.1907C32.7624 10.181 32.7533 10.1684 32.7423 10.1532C32.7202 10.1229 32.6901 10.0819 32.6523 10.0311C32.5767 9.92947 32.4699 9.78839 32.3339 9.61458C32.0621 9.26745 31.6713 8.78686 31.1767 8.22754C30.1951 7.11744 28.7676 5.65518 27.016 4.30852C23.652 1.72221 18.2313 -1.0526 12.4012 1.58714L14.8761 7.05296ZM31.8023 14.5693C36.4443 11.9766 41.0467 10.6277 44.5011 9.93044C46.223 9.58286 47.6444 9.40025 48.6216 9.30495C49.1098 9.25734 49.4857 9.23165 49.7313 9.21803C49.854 9.21122 49.944 9.20743 49.9991 9.20542C50.0266 9.20442 50.0453 9.20387 50.0551 9.2036C50.0599 9.20347 50.0625 9.20341 50.0628 9.2034C50.063 9.2034 50.0625 9.20341 50.0615 9.20343C50.061 9.20344 50.0604 9.20345 50.0596 9.20347C50.0592 9.20347 50.0585 9.20349 50.0583 9.20349C50.0576 9.2035 50.0568 9.20352 50.0011 6.20404C49.9455 3.20455 49.9446 3.20457 49.9438 3.20458C49.9434 3.20459 49.9425 3.20461 49.9418 3.20462C49.9404 3.20465 49.9389 3.20468 49.9372 3.20472C49.9338 3.20479 49.9299 3.20487 49.9253 3.20498C49.9162 3.20518 49.9048 3.20547 49.891 3.20584C49.8634 3.2066 49.8265 3.20773 49.7806 3.2094C49.6887 3.21275 49.5607 3.21826 49.3989 3.22724C49.0752 3.2452 48.6158 3.27705 48.0392 3.33328C46.8871 3.44565 45.2616 3.6559 43.3139 4.04907C39.4288 4.83328 34.2003 6.35748 28.8765 9.33097L31.8023 14.5693ZM53.0011 6.20404V6.19427H47.0011V6.20404H53.0011ZM50.0011 6.19427C49.9455 9.19375 49.9447 9.19374 49.944 9.19373C49.9438 9.19372 49.9431 9.19371 49.9427 9.1937C49.9419 9.19368 49.9412 9.19367 49.9407 9.19366C49.9397 9.19364 49.9393 9.19363 49.9395 9.19363C49.9398 9.19364 49.9424 9.1937 49.9472 9.19383C49.9569 9.1941 49.9757 9.19466 50.0032 9.19566C50.0583 9.19767 50.1483 9.20145 50.271 9.20826C50.5166 9.22189 50.8925 9.24758 51.3807 9.29518C52.3579 9.39049 53.7793 9.57309 55.5013 9.92068C58.9557 10.618 63.558 11.9668 68.2 14.5595L71.1258 9.32122C65.8021 6.34772 60.5735 4.82351 56.6885 4.0393C54.7407 3.64614 53.1153 3.43588 51.9631 3.32351C51.3865 3.26729 50.927 3.23543 50.6034 3.21748C50.4416 3.2085 50.3136 3.20299 50.2217 3.19964C50.1758 3.19797 50.1389 3.19683 50.1113 3.19608C50.0975 3.1957 50.086 3.19542 50.077 3.19521C50.0724 3.19511 50.0684 3.19502 50.0651 3.19495C50.0634 3.19491 50.0619 3.19488 50.0605 3.19486C50.0598 3.19484 50.0589 3.19483 50.0585 3.19482C50.0576 3.1948 50.0568 3.19479 50.0011 6.19427ZM69.6629 11.9404C72.108 13.6786 72.1075 13.6793 72.107 13.68C72.1069 13.6802 72.1064 13.6808 72.1062 13.6812C72.1057 13.6818 72.1053 13.6824 72.105 13.6827C72.1045 13.6834 72.1045 13.6835 72.1049 13.6828C72.1058 13.6816 72.1086 13.6777 72.1133 13.6713C72.1227 13.6584 72.1396 13.6353 72.1637 13.6029C72.2119 13.538 72.289 13.436 72.393 13.3031C72.6014 13.0368 72.9156 12.6498 73.3202 12.1921C74.1371 11.268 75.2854 10.0986 76.6426 9.05491C79.4962 6.86044 82.4256 5.81987 85.1247 7.04146L87.5986 1.57521C81.7685 -1.06336 76.3485 1.71208 72.985 4.29867C71.2336 5.64549 69.8065 7.10784 68.825 8.218C68.3305 8.77734 67.9398 9.25795 67.6681 9.60509C67.5321 9.77891 67.4253 9.91999 67.3497 10.0216C67.3119 10.0724 67.2819 10.1134 67.2598 10.1438C67.2488 10.159 67.2397 10.1715 67.2327 10.1812C67.2292 10.1861 67.2262 10.1903 67.2237 10.1938C67.2224 10.1956 67.2213 10.1971 67.2203 10.1985C67.2198 10.1992 67.2192 10.2001 67.2189 10.2005C67.2183 10.2014 67.2177 10.2022 69.6629 11.9404ZM86.3617 4.30833C84.0317 6.19813 84.0309 6.19706 84.03 6.19602C84.0298 6.19572 84.029 6.1947 84.0285 6.19409C84.0275 6.19286 84.0266 6.19175 84.0258 6.19075C84.0242 6.18875 84.0229 6.18721 84.0221 6.18613C84.0203 6.18397 84.0201 6.18362 84.0212 6.18506C84.0235 6.18793 84.0312 6.19788 84.0439 6.21461C84.0694 6.24815 84.1143 6.30842 84.1738 6.39308C84.2934 6.56321 84.4686 6.82677 84.6633 7.16515C85.0602 7.85488 85.4976 8.78596 85.7423 9.8229C85.9846 10.8498 86.0211 11.903 85.7187 12.9289C85.4246 13.9265 84.7496 15.1088 83.2241 16.3365L86.986 21.0107C89.3655 19.0956 90.8001 16.9108 91.4738 14.6256C92.1391 12.3688 92.0017 10.2236 91.5819 8.44484C91.1645 6.67616 90.4517 5.19447 89.8639 4.17284C89.5663 3.65554 89.2905 3.23876 89.0823 2.94249C88.9778 2.79394 88.8895 2.67449 88.8228 2.5866C88.7894 2.54262 88.7614 2.50643 88.7393 2.47835C88.7283 2.4643 88.7187 2.45227 88.7107 2.44229C88.7068 2.4373 88.7032 2.43283 88.7 2.42887C88.6984 2.42689 88.6969 2.42504 88.6955 2.42331C88.6948 2.42245 88.6938 2.42126 88.6935 2.42083C88.6926 2.41967 88.6916 2.41854 86.3617 4.30833ZM85.1051 18.6736C82.136 19.1035 82.1359 19.1027 82.1358 19.1021C82.1358 19.1019 82.1357 19.1012 82.1356 19.1008C82.1355 19.1 82.1354 19.0993 82.1353 19.0987C82.1352 19.0975 82.135 19.0966 82.135 19.0961C82.1348 19.0951 82.1349 19.0955 82.1351 19.0973C82.1356 19.1009 82.1369 19.1101 82.1387 19.1244C82.1424 19.1532 82.1485 19.2028 82.1559 19.2709C82.1708 19.4074 82.1909 19.6164 82.2081 19.8799C82.2427 20.4124 82.2632 21.1388 82.2121 21.9242C82.0975 23.6815 81.6721 24.9567 81.0978 25.531L85.3404 29.7736C87.5492 27.5649 88.0667 24.3507 88.1994 22.3144C88.2718 21.203 88.242 20.2065 88.1954 19.4904C88.1719 19.1295 88.1437 18.8327 88.1204 18.6196C88.1088 18.5128 88.0983 18.4266 88.0902 18.3632C88.0862 18.3315 88.0827 18.3055 88.08 18.2855C88.0786 18.2755 88.0774 18.267 88.0764 18.26C88.0759 18.2565 88.0755 18.2534 88.0751 18.2507C88.0749 18.2493 88.0747 18.2481 88.0746 18.2469C88.0745 18.2463 88.0744 18.2455 88.0743 18.2452C88.0742 18.2444 88.0741 18.2437 85.1051 18.6736ZM83.2191 27.6523C83.0487 30.6474 83.0468 30.6473 83.0449 30.6472C83.0443 30.6472 83.0424 30.6471 83.0411 30.647C83.0387 30.6468 83.0364 30.6467 83.0341 30.6466C83.0296 30.6463 83.0255 30.646 83.0217 30.6458C83.014 30.6452 83.0078 30.6448 83.0029 30.6444C82.9932 30.6436 82.9888 30.6432 82.9896 30.6433C82.9911 30.6434 83.0129 30.6457 83.053 30.6516C83.1333 30.6636 83.2849 30.6903 83.4919 30.7446C83.9063 30.8534 84.5342 31.0703 85.2579 31.4953C86.6583 32.3178 88.61 34.0297 90.0279 37.7081L95.6263 35.55C93.7218 30.6092 90.8695 27.8328 88.2965 26.3216C87.0335 25.5799 85.8823 25.1687 85.0144 24.941C84.5802 24.8271 84.2148 24.7586 83.9384 24.7173C83.8001 24.6967 83.6836 24.6828 83.5915 24.6735C83.5454 24.6689 83.5053 24.6654 83.4716 24.6627C83.4547 24.6614 83.4394 24.6603 83.4257 24.6594C83.4189 24.6589 83.4124 24.6585 83.4064 24.6581C83.4034 24.6579 83.4005 24.6578 83.3977 24.6576C83.3962 24.6575 83.3942 24.6574 83.3935 24.6574C83.3915 24.6572 83.3895 24.6571 83.2191 27.6523ZM93.9387 33.8426L91.695 32.9475L89.4717 38.5204L91.7155 39.4155L93.9387 33.8426ZM88.8397 38.1751C88.748 38.1096 89.5098 38.6482 90.3004 39.6822C91.0861 40.7098 91.8042 42.097 91.8953 43.7927L97.8867 43.4709C97.5418 37.0504 92.5652 33.4628 92.3271 33.2927L88.8397 38.1751ZM96.7225 41.2557L93.5836 38.8362L89.9206 43.5883L93.0595 46.0078L96.7225 41.2557ZM89.543 43.2419C89.5375 43.236 90.5459 44.3338 91.4986 45.9626C92.4893 47.6563 93.1793 49.5177 93.0651 51.1438L99.0504 51.5638C99.29 48.1496 97.8945 45.0135 96.6777 42.9332C95.4228 40.7879 94.1015 39.3351 93.9613 39.1825L89.543 43.2419ZM98.2241 49.2785L94.2096 45.0881L89.877 49.2388L93.8915 53.4292L98.2241 49.2785ZM89.7859 49.1393C89.8983 49.2677 91.0652 50.6263 92.0336 52.6462C93.0115 54.6861 93.6513 57.1125 93.1415 59.5347L99.0128 60.7706C99.8984 56.5634 98.7284 52.7316 97.444 50.0525C96.1501 47.3535 94.6024 45.5322 94.3007 45.1875L89.7859 49.1393Z" fill="#EBCB8B" mask="url(#path-1-outside-1_108_667)"/>
<path d="M32.2271 80.5788C29.9268 74.6764 33.0344 68.4241 33.0324 68.4221" stroke="#EBCB8B" stroke-width="3" stroke-miterlimit="10" stroke-linecap="round" stroke-linejoin="round"/>
<path d="M39.855 66.8069L41.2913 74.169" stroke="#EBCB8B" stroke-width="3" stroke-miterlimit="10" stroke-linecap="round" stroke-linejoin="round"/>
<path d="M30.3606 42.9252C30.3606 42.9252 39.8101 40.2543 40.3712 49.1875C40.3166 49.2234 33.2671 53.8584 30.3606 42.9252Z" fill="#4C566A"/>
<path d="M30.3606 42.9252C30.3606 42.9252 39.8101 40.2543 40.3712 49.1875M30.3606 42.9252C33.2784 53.901 40.3712 49.1875 40.3712 49.1875M30.3606 42.9252C33.2671 53.8584 40.3166 49.2234 40.3712 49.1875M40.3712 49.1875V52.2176M34.6935 26.8314C40.0114 18.2123 50.0007 17.54 50.0007 17.54M38.4634 18.7518C38.4634 18.7518 31.7298 21.6473 29.979 28.7174C29.979 28.7174 29.3729 33.4982 25.7368 34.5082" stroke="#EBCB8B" stroke-width="3" stroke-miterlimit="10" stroke-linecap="round" stroke-linejoin="round"/>
<path d="M29.9791 28.7173C29.9791 28.7173 29.3057 35.7202 28.0938 39.1544C26.8817 42.5886 23.3129 45.5513 25.7369 53.0929C28.161 60.6345 34.6926 57.6044 34.6926 57.6044" stroke="#EBCB8B" stroke-width="3" stroke-miterlimit="10" stroke-linecap="round" stroke-linejoin="round"/>
<path d="M23.2454 35.0469C23.2454 35.0469 19.6093 45.8879 21.764 55.4496C21.764 55.4496 22.9087 59.0184 27.4202 60.2305M21.764 55.4496C21.764 55.4496 20.5519 66.7619 30.8542 71.3408M50.0007 83.8662C50.0007 83.8623 50.0007 83.8584 50.0007 83.8545M66.9693 68.4123C66.9693 68.4123 70.0866 74.6451 67.7999 80.5416" stroke="#EBCB8B" stroke-width="3" stroke-miterlimit="10" stroke-linecap="round" stroke-linejoin="round"/>
<path d="M60.1455 66.7961L58.709 74.1583" stroke="#EBCB8B" stroke-width="3" stroke-miterlimit="10" stroke-linecap="round" stroke-linejoin="round"/>
<path d="M69.64 42.9144C69.64 42.9144 60.1906 40.2435 59.6295 49.1767C59.6841 49.2126 66.7334 53.8477 69.64 42.9144Z" fill="#4C566A"/>
<path d="M69.64 42.9144C69.64 42.9144 60.1906 40.2435 59.6295 49.1767M69.64 42.9144C66.7221 53.8902 59.6295 49.1767 59.6295 49.1767M69.64 42.9144C66.7334 53.8477 59.6841 49.2126 59.6295 49.1767M59.6295 49.1767V52.2068M50.001 17.5281C50.001 17.5281 59.9883 18.2023 65.3082 26.8214M61.5373 18.7408C61.5373 18.7408 68.2709 21.6363 70.0217 28.7064C70.0217 28.7064 70.6277 33.4873 74.2639 34.4972" stroke="#EBCB8B" stroke-width="3" stroke-miterlimit="10" stroke-linecap="round" stroke-linejoin="round"/>
<path d="M70.0211 28.7065C70.0211 28.7065 70.6945 35.7095 71.9064 39.1437C73.1186 42.5778 76.6873 45.5405 74.2633 53.0821C71.8393 60.6237 65.3076 57.5937 65.3076 57.5937" stroke="#EBCB8B" stroke-width="3" stroke-miterlimit="10" stroke-linecap="round" stroke-linejoin="round"/>
<path d="M76.7548 35.0361C76.7548 35.0361 80.3909 45.8771 78.2362 55.4389C78.2362 55.4389 77.0915 59.0076 72.58 60.2197M78.2362 55.4389C78.2362 55.4389 79.4483 66.7512 69.146 71.3301" stroke="#EBCB8B" stroke-width="3" stroke-miterlimit="10" stroke-linecap="round" stroke-linejoin="round"/>
<path d="M50.0006 96.5135V96.5252C36.1728 97.4223 38.2308 87.1301 38.2308 87.1301C39.1357 87.6383 40.1521 88.1092 41.2916 88.5334C41.2916 88.5334 50.0006 89.7002 50.0006 83.8663C50.0123 89.6885 58.7096 88.5237 58.7096 88.5237C59.849 88.0995 60.8633 87.6286 61.7683 87.1204C61.7683 87.1204 63.8264 97.4106 50.0006 96.5135Z" fill="#BF616A" stroke="#EBCB8B" stroke-width="3" stroke-miterlimit="10" stroke-linecap="round" stroke-linejoin="round"/>
<path d="M58.276 76.4022C58.276 76.4022 53.4269 79.9944 53.1592 81.1614C52.948 82.0702 51.0094 82.6058 50.1631 82.7954C50.0889 82.813 50.0223 82.8286 49.9656 82.8384C49.9109 82.8267 49.8465 82.813 49.7721 82.7954C48.9414 82.6058 47.0516 82.0802 46.8424 81.1712C46.5727 80.0044 41.7236 76.4142 41.7236 76.4142C42.8924 73.9007 47.3799 77.1313 47.3799 77.1313C48.4334 76.8519 49.5395 77.0103 49.9734 77.0923C50.3623 77.0142 51.5213 76.8284 52.6197 77.1216C52.6197 77.1214 57.1092 73.8888 58.276 76.4022Z" stroke="#EBCB8B" stroke-width="3" stroke-miterlimit="10" stroke-linecap="round" stroke-linejoin="round"/>
<path d="M27.977 14.6946C27.977 14.6946 21.9936 6.9384 15.8995 6.05207C15.8995 6.05207 14.9022 5.71965 14.5698 7.04934C14.2374 8.37903 11.4673 12.3679 16.2319 16.5784M49.9655 82.8382C49.8444 82.8655 49.7719 82.8773 49.7719 82.8773V82.7952C49.8462 82.8128 49.9108 82.8265 49.9655 82.8382Z" stroke="#EBCB8B" stroke-width="3" stroke-miterlimit="10" stroke-linecap="round" stroke-linejoin="round"/>
<path d="M38.4933 77.2009C38.5303 77.2009 38.5603 77.1709 38.5603 77.1339C38.5603 77.0969 38.5303 77.0669 38.4933 77.0669C38.4563 77.0669 38.4263 77.0969 38.4263 77.1339C38.4263 77.1709 38.4563 77.2009 38.4933 77.2009Z" stroke="#EBCB8B" stroke-width="3" stroke-miterlimit="10" stroke-linecap="round" stroke-linejoin="round"/>
<path d="M39.275 82.2824C39.312 82.2824 39.342 82.2524 39.342 82.2154C39.342 82.1784 39.312 82.1484 39.275 82.1484C39.238 82.1484 39.208 82.1784 39.208 82.2154C39.208 82.2524 39.238 82.2824 39.275 82.2824Z" stroke="#EBCB8B" stroke-width="3" stroke-miterlimit="10" stroke-linecap="round" stroke-linejoin="round"/>
<path d="M34.7799 74.2692C34.8169 74.2692 34.8469 74.2392 34.8469 74.2022C34.8469 74.1653 34.8169 74.1353 34.7799 74.1353C34.7429 74.1353 34.7129 74.1653 34.7129 74.2022C34.7129 74.2392 34.7429 74.2692 34.7799 74.2692Z" stroke="#EBCB8B" stroke-width="3" stroke-miterlimit="10" stroke-linecap="round" stroke-linejoin="round"/>
<path d="M36.5387 79.7417C36.5757 79.7417 36.6057 79.7117 36.6057 79.6747C36.6057 79.6377 36.5757 79.6077 36.5387 79.6077C36.5017 79.6077 36.4717 79.6377 36.4717 79.6747C36.4717 79.7117 36.5017 79.7417 36.5387 79.7417Z" stroke="#EBCB8B" stroke-width="3" stroke-miterlimit="10" stroke-linecap="round" stroke-linejoin="round"/>
<path d="M64.1891 78.0905C64.2261 78.0905 64.2561 78.0605 64.2561 78.0235C64.2561 77.9865 64.2261 77.9565 64.1891 77.9565C64.1521 77.9565 64.1221 77.9865 64.1221 78.0235C64.1221 78.0605 64.1521 78.0905 64.1891 78.0905Z" stroke="#EBCB8B" stroke-width="3" stroke-miterlimit="10" stroke-linecap="round" stroke-linejoin="round"/>
<path d="M61.149 82.2365C61.186 82.2365 61.216 82.2065 61.216 82.1695C61.216 82.1325 61.186 82.1025 61.149 82.1025C61.112 82.1025 61.082 82.1325 61.082 82.1695C61.082 82.2065 61.112 82.2365 61.149 82.2365Z" stroke="#EBCB8B" stroke-width="3" stroke-miterlimit="10" stroke-linecap="round" stroke-linejoin="round"/>
<path d="M63.6363 73.392C63.6733 73.392 63.7033 73.3621 63.7033 73.3251C63.7033 73.2881 63.6733 73.2581 63.6363 73.2581C63.5993 73.2581 63.5693 73.2881 63.5693 73.3251C63.5693 73.3621 63.5993 73.392 63.6363 73.392Z" stroke="#EBCB8B" stroke-width="3" stroke-miterlimit="10" stroke-linecap="round" stroke-linejoin="round"/>
<path d="M61.0108 78.5053C61.0478 78.5053 61.0778 78.4753 61.0778 78.4383C61.0778 78.4013 61.0478 78.3713 61.0108 78.3713C60.9738 78.3713 60.9438 78.4013 60.9438 78.4383C60.9438 78.4753 60.9738 78.5053 61.0108 78.5053Z" stroke="#EBCB8B" stroke-width="3" stroke-miterlimit="10" stroke-linecap="round" stroke-linejoin="round"/>
</svg>
